<svg width="24" height="24" viewBox="0 0 24 24" fill="none" xmlns="http://www.w3.org/2000/svg">
<path fill-rule="evenodd" clip-rule="evenodd" d="M6.28125 19.7188V4.28125H16.9688V19.7188H15.1875V15.5625C15.1875 15.2476 15.0624 14.9455 14.8397 14.7228C14.617 14.5001 14.3149 14.375 14 14.375H9.25C8.93506 14.375 8.63301 14.5001 8.41031 14.7228C8.18761 14.9455 8.0625 15.2476 8.0625 15.5625V19.7188H6.28125ZM9.84375 19.7188H13.4062V16.1562H9.84375V19.7188ZM4.5 3.6875C4.5 3.37256 4.62511 3.07051 4.84781 2.84781C5.07051 2.62511 5.37256 2.5 5.6875 2.5H17.5625C17.8774 2.5 18.1795 2.62511 18.4022 2.84781C18.6249 3.07051 18.75 3.37256 18.75 3.6875V20.3125C18.75 20.6274 18.6249 20.9295 18.4022 21.1522C18.1795 21.3749 17.8774 21.5 17.5625 21.5H5.6875C5.37256 21.5 5.07051 21.3749 4.84781 21.1522C4.62511 20.9295 4.5 20.6274 4.5 20.3125V3.6875ZM8.0625 6.95312C8.0625 6.71692 8.15633 6.49038 8.32336 6.32336C8.49038 6.15633 8.71692 6.0625 8.95312 6.0625H10.1406C10.3768 6.0625 10.6034 6.15633 10.7704 6.32336C10.9374 6.49038 11.0312 6.71692 11.0312 6.95312C11.0312 7.18933 10.9374 7.41587 10.7704 7.58289C10.6034 7.74992 10.3768 7.84375 10.1406 7.84375H8.95312C8.71692 7.84375 8.49038 7.74992 8.32336 7.58289C8.15633 7.41587 8.0625 7.18933 8.0625 6.95312ZM13.1094 6.0625C12.8732 6.0625 12.6466 6.15633 12.4796 6.32336C12.3126 6.49038 12.2188 6.71692 12.2188 6.95312C12.2188 7.18933 12.3126 7.41587 12.4796 7.58289C12.6466 7.74992 12.8732 7.84375 13.1094 7.84375H14.2969C14.5331 7.84375 14.7596 7.74992 14.9266 7.58289C15.0937 7.41587 15.1875 7.18933 15.1875 6.95312C15.1875 6.71692 15.0937 6.49038 14.9266 6.32336C14.7596 6.15633 14.5331 6.0625 14.2969 6.0625H13.1094ZM8.0625 11.1094C8.0625 10.8732 8.15633 10.6466 8.32336 10.4796C8.49038 10.3126 8.71692 10.2188 8.95312 10.2188H10.1406C10.3768 10.2188 10.6034 10.3126 10.7704 10.4796C10.9374 10.6466 11.0312 10.8732 11.0312 11.1094C11.0312 11.3456 10.9374 11.5721 10.7704 11.7391C10.6034 11.9062 10.3768 12 10.1406 12H8.95312C8.71692 12 8.49038 11.9062 8.32336 11.7391C8.15633 11.5721 8.0625 11.3456 8.0625 11.1094ZM13.1094 10.2188C12.8732 10.2188 12.6466 10.3126 12.4796 10.4796C12.3126 10.6466 12.2188 10.8732 12.2188 11.1094C12.2188 11.3456 12.3126 11.5721 12.4796 11.7391C12.6466 11.9062 12.8732 12 13.1094 12H14.2969C14.5331 12 14.7596 11.9062 14.9266 11.7391C15.0937 11.5721 15.1875 11.3456 15.1875 11.1094C15.1875 10.8732 15.0937 10.6466 14.9266 10.4796C14.7596 10.3126 14.5331 10.2188 14.2969 10.2188H13.1094Z" fill="black"/>
</svg>
