<svg width="24" height="24" viewBox="0 0 24 24" fill="none" xmlns="http://www.w3.org/2000/svg">
<path d="M7.12511 4.50001C6.13511 4.50001 5.25311 5.14501 4.96886 6.09376L3.93761 9.53926L2.48411 9.04726L2.01611 10.4528L3.49211 10.9455L3.02336 12.5393C3.00538 12.608 2.99755 12.679 3.00011 12.75V18.75C3.00011 19.1625 3.33761 19.5 3.75011 19.5H6.00011L6.25811 18.75H17.7421L18.0001 19.5H20.2501C20.6626 19.5 21.0001 19.1625 21.0001 18.75V18.117C21.0031 18.0795 21.0031 18.0383 21.0001 18V12.75C21.0027 12.679 20.9948 12.608 20.9769 12.5393L20.5081 10.9455L21.9841 10.4535L21.5154 9.04651L20.0626 9.53926L19.0314 6.09376C18.8909 5.63172 18.6053 5.22722 18.2169 4.94016C17.8285 4.65311 17.358 4.49877 16.8751 4.50001H7.12511ZM7.12511 6.00001H16.8751C17.2089 6.00001 17.5051 6.21976 17.6019 6.53926L18.5626 9.75001H5.43761L6.39836 6.53926C6.49586 6.21676 6.79136 6.00001 7.12511 6.00001ZM4.99211 11.25H19.0081L19.5001 12.891V17.25H4.50011V12.8903L4.99211 11.25ZM6.37511 12C6.07675 12 5.7906 12.1185 5.57962 12.3295C5.36864 12.5405 5.25011 12.8266 5.25011 13.125C5.25011 13.4234 5.36864 13.7095 5.57962 13.9205C5.7906 14.1315 6.07675 14.25 6.37511 14.25C6.67348 14.25 6.95963 14.1315 7.17061 13.9205C7.38159 13.7095 7.50011 13.4234 7.50011 13.125C7.50011 12.8266 7.38159 12.5405 7.17061 12.3295C6.95963 12.1185 6.67348 12 6.37511 12ZM17.6251 12C17.3267 12 17.0406 12.1185 16.8296 12.3295C16.6186 12.5405 16.5001 12.8266 16.5001 13.125C16.5001 13.4234 16.6186 13.7095 16.8296 13.9205C17.0406 14.1315 17.3267 14.25 17.6251 14.25C17.9235 14.25 18.2096 14.1315 18.4206 13.9205C18.6316 13.7095 18.7501 13.4234 18.7501 13.125C18.7501 12.8266 18.6316 12.5405 18.4206 12.3295C18.2096 12.1185 17.9235 12 17.6251 12ZM9.00011 14.25L8.06261 16.5H9.67961L10.0081 15.75H13.9921L14.3206 16.5H15.9376L15.0001 14.25H9.00011Z" fill="#7B2CBF"/>
</svg>
