<svg width="24" height="24" viewBox="0 0 24 24" fill="none" xmlns="http://www.w3.org/2000/svg">
<path d="M15 2.25C13.7662 2.25 12.75 3.26625 12.75 4.5C12.75 5.73375 13.7662 6.75 15 6.75C16.2338 6.75 17.25 5.73375 17.25 4.5C17.25 3.26625 16.2338 2.25 15 2.25ZM15 3.75C15.4222 3.75 15.75 4.0785 15.75 4.5C15.75 4.92225 15.4215 5.25 15 5.25C14.5778 5.25 14.25 4.9215 14.25 4.5C14.25 4.07775 14.5785 3.75 15 3.75ZM10.8983 5.83575L8.20275 6.141C7.98379 6.16668 7.77336 6.24104 7.58687 6.35861C7.40038 6.47619 7.24257 6.63401 7.125 6.8205L5.25 9.72675L6.516 10.5233L8.391 7.64025L10.101 7.45275L9 10.5712C6.46275 10.9373 4.5 13.1137 4.5 15.7507C4.5 18.642 6.85875 21.0007 9.75 21.0007C12.6412 21.0007 15 18.642 15 15.7507C15 15.4957 14.9648 15.2467 14.9295 15.0007H15.891L16.8983 19.5712L18.3517 19.2428L17.367 14.673C17.2178 13.986 16.5907 13.5 15.891 13.5H14.4847C14.1828 12.8764 13.7604 12.3187 13.242 11.859L14.1097 9.4455C14.2912 8.93781 14.2844 8.38189 14.0908 7.87874C13.8972 7.37559 13.5295 6.95859 13.0545 6.7035L11.79 6V6.02325C11.52 5.88 11.2005 5.8005 10.8983 5.83575ZM11.6483 7.641L12.3517 8.016C12.6855 8.1945 12.8317 8.5755 12.7028 8.9295L11.9528 10.992C11.5141 10.7873 11.0488 10.6454 10.5705 10.5705L11.6483 7.641ZM9.75 12C11.8298 12 13.5 13.6702 13.5 15.75C13.5 17.8298 11.8298 19.5 9.75 19.5C7.67025 19.5 6 17.8298 6 15.75C6 13.6702 7.67025 12 9.75 12Z" fill="#3A86FF"/>
</svg>
