<svg width="64" height="64" viewBox="0 0 64 64" fill="none" xmlns="http://www.w3.org/2000/svg">
<path d="M28.8889 52C24.6749 52 20.6335 50.3444 17.6537 47.3974C14.674 44.4504 13 40.4534 13 36.2857C13 32.118 14.674 28.121 17.6537 25.174C20.6335 22.227 24.6749 20.5714 28.8889 20.5714C29.272 20.5714 29.6394 20.7219 29.9103 20.9898C30.1812 21.2578 30.3333 21.6211 30.3333 22V34.8571H43.3333C43.7164 34.8571 44.0838 35.0077 44.3547 35.2756C44.6256 35.5435 44.7778 35.9068 44.7778 36.2857C44.7778 40.4534 43.1038 44.4504 40.124 47.3974C37.1443 50.3444 33.1029 52 28.8889 52ZM27.4444 23.5143C25.0109 23.7821 22.7032 24.7242 20.7872 26.2321C18.8712 27.74 17.4248 29.7524 16.6145 32.0377C15.8041 34.3229 15.6628 36.788 16.2069 39.1492C16.7509 41.5104 17.9581 43.6716 19.6896 45.384C21.421 47.0964 23.6062 48.2903 25.9936 48.8284C28.381 49.3664 30.8735 49.2267 33.1841 48.4253C35.4948 47.6238 37.5296 46.1933 39.0542 44.2984C40.5789 42.4034 41.5315 40.1211 41.8022 37.7143H30.3333C29.5672 37.7143 28.8324 37.4133 28.2906 36.8774C27.7488 36.3416 27.4444 35.6149 27.4444 34.8571V23.5143Z" fill="#7B2CBF"/>
<path d="M50.5556 29.1429H37.5556C36.7894 29.1429 36.0546 28.8418 35.5128 28.306C34.971 27.7702 34.6667 27.0435 34.6667 26.2857V13.4286C34.6667 13.0497 34.8188 12.6863 35.0897 12.4184C35.3606 12.1505 35.728 12 36.1111 12C40.3251 12 44.3665 13.6556 47.3463 16.6026C50.326 19.5496 52 23.5466 52 27.7143C52 28.0932 51.8478 28.4565 51.5769 28.7244C51.306 28.9923 50.9386 29.1429 50.5556 29.1429ZM37.5556 26.2857H49.0244C48.6957 23.3893 47.3818 20.6893 45.298 18.6284C43.2141 16.5675 40.4841 15.2679 37.5556 14.9429V26.2857Z" fill="#7B2CBF"/>
</svg>
