<svg width="64" height="64" viewBox="0 0 64 64" fill="none" xmlns="http://www.w3.org/2000/svg">
<path d="M9.74224 50.2739H55.2579C55.7434 50.2739 56.1372 50.6682 56.1372 51.1548V55.1191C56.1372 55.6057 55.7434 56 55.2579 56H9.74224C9.25659 56 8.86277 55.6057 8.86277 55.1191V51.1548C8.86277 50.6682 9.25659 50.2739 9.74224 50.2739ZM54.3781 52.0357H10.6219V54.2382H54.3781V52.0357Z" fill="#7B2CBF"/>
<path d="M14.3598 46.3094H50.6404C51.1259 46.3094 51.5197 46.7039 51.5197 47.1905V51.1548C51.5197 51.6415 51.1259 52.0357 50.6404 52.0357H14.3598C13.8739 52.0357 13.4803 51.6415 13.4803 51.1548V47.1905C13.4803 46.7039 13.8739 46.3094 14.3598 46.3094ZM49.7606 48.0715H15.2392V50.2739H49.7606V48.0715Z" fill="#7B2CBF"/>
<path d="M17.548 31.5393H21.3961C21.8816 31.5393 22.2756 31.934 22.2756 32.4206V47.1905C22.2756 47.677 21.8816 48.0715 21.3961 48.0715H17.548C17.0623 48.0715 16.6685 47.677 16.6685 47.1905V32.4206C16.6685 31.934 17.0623 31.5393 17.548 31.5393ZM20.5165 33.3013H18.4277V46.3094H20.5165V33.3013Z" fill="#7B2CBF"/>
<path d="M43.6039 31.5393H47.4522C47.9375 31.5393 48.3315 31.934 48.3315 32.4206V47.1905C48.3315 47.677 47.9375 48.0715 47.4522 48.0715H43.6039C43.1184 48.0715 42.7244 47.677 42.7244 47.1905V32.4206C42.7244 31.934 43.1184 31.5393 43.6039 31.5393ZM46.5723 33.3013H44.4837V46.3094H46.5723V33.3013Z" fill="#7B2CBF"/>
<path d="M14.3598 26.2539H50.6404C51.1259 26.2539 51.5197 26.648 51.5197 27.1346V32.4206C51.5197 32.9069 51.1259 33.3013 50.6404 33.3013H14.3598C13.8739 33.3013 13.4803 32.9069 13.4803 32.4206V27.1346C13.4803 26.648 13.8739 26.2539 14.3598 26.2539ZM49.7606 28.0159H15.2392V31.5393H49.7606V28.0159Z" fill="#7B2CBF"/>
<path d="M34.2163 8.54686L54.3353 22.5086C54.8866 22.8913 55.2772 23.4174 55.4798 24.0085C55.6829 24.6002 55.6981 25.2543 55.4989 25.8933C55.2998 26.5312 54.9143 27.0607 54.409 27.4327C53.904 27.805 53.2848 28.0159 52.6195 28.0159H12.3807C11.7154 28.0159 11.0962 27.805 10.591 27.4327C10.0859 27.0607 9.69998 26.5312 9.50095 25.8933C9.30174 25.2543 9.31711 24.6002 9.52016 24.0085C9.72284 23.4174 10.1134 22.8913 10.6646 22.5086L30.7837 8.54686C31.3093 8.18222 31.9045 8 32.5 8C33.0955 8 33.6907 8.18222 34.2163 8.54686ZM33.22 9.99253C32.9987 9.83898 32.7488 9.76201 32.5 9.76201C32.2512 9.76201 32.0013 9.83898 31.78 9.99253L11.6608 23.9539C11.4305 24.114 11.2674 24.3331 11.1831 24.5794C11.0987 24.8254 11.0931 25.0996 11.1777 25.3701C11.262 25.641 11.4217 25.8627 11.6286 26.0149C11.8355 26.1677 12.0954 26.2539 12.3807 26.2539H52.6195C52.9046 26.2539 53.1649 26.1671 53.3714 26.0149C53.5785 25.8627 53.7378 25.641 53.8223 25.3701C53.907 25.0996 53.9011 24.8254 53.8169 24.5794C53.7324 24.3331 53.5697 24.114 53.339 23.9539L33.22 9.99253Z" fill="#7B2CBF"/>
<path d="M30.576 31.5393H34.424C34.9098 31.5393 35.3038 31.934 35.3038 32.4206V47.1905C35.3038 47.677 34.9098 48.0715 34.424 48.0715H30.576C30.0902 48.0715 29.6962 47.677 29.6962 47.1905V32.4206C29.6962 31.934 30.0902 31.5393 30.576 31.5393ZM33.5445 33.3013H31.4555V46.3094H33.5445V33.3013Z" fill="#7B2CBF"/>
<path d="M32.5 16.3457C31.7396 16.3457 31.0517 16.654 30.5536 17.1531C30.0552 17.6515 29.7475 18.3411 29.7475 19.1027C29.7475 19.8638 30.0552 20.5534 30.5536 21.0525C31.0517 21.5509 31.7396 21.8598 32.5 21.8598C33.2604 21.8598 33.9483 21.5509 34.4466 21.0525C34.9448 20.5534 35.2525 19.8638 35.2525 19.1027C35.2525 18.3411 34.9448 17.6515 34.4466 17.1531C33.9483 16.654 33.2604 16.3457 32.5 16.3457ZM29.3097 15.9072C30.1261 15.0896 31.2544 14.5837 32.5 14.5837C33.7458 14.5837 34.8739 15.0896 35.6903 15.9072C36.5066 16.725 37.0117 17.8551 37.0117 19.1027C37.0117 20.3506 36.5066 21.4801 35.6903 22.2983C34.8739 23.1159 33.7458 23.6218 32.5 23.6218C31.2544 23.6218 30.1261 23.1159 29.3097 22.2983C28.4934 21.4801 27.9883 20.3506 27.9883 19.1027C27.9883 17.8551 28.4934 16.725 29.3097 15.9072Z" fill="#7B2CBF"/>
<path d="M61.1207 54.2382C61.6062 54.2382 62 54.6327 62 55.1191C62 55.6057 61.6062 56 61.1207 56H3.87947C3.39382 56 3 55.6057 3 55.1191C3 54.6327 3.39382 54.2382 3.87947 54.2382H61.1207Z" fill="#7B2CBF"/>
</svg>
