<svg width="64" height="64" viewBox="0 0 64 64" fill="none" xmlns="http://www.w3.org/2000/svg">
<path d="M33.0954 15.3214L52.5166 29.9642C52.7675 30.153 52.8995 30.441 52.8995 30.7327H52.9015V55.0348C52.9015 55.5678 52.4688 55.9998 51.9354 55.9998H13.0646C12.5312 55.9998 12.0989 55.5678 12.0989 55.0348V30.7327C12.0989 30.3986 12.269 30.1041 12.5277 29.9307L31.9189 15.3105C32.276 15.041 32.7595 15.0574 33.0954 15.3214ZM32.5 17.286L14.0303 31.2116V54.07H50.9697V31.2116L32.5 17.286Z" fill="#7B2CBF"/>
<path d="M33.0954 8.20528L59.6165 28.2015C60.0414 28.522 60.1264 29.1262 59.8052 29.5507C59.7457 29.6295 59.6764 29.6969 59.6005 29.7516L55.1481 33.1084C54.791 33.3775 54.3075 33.361 53.9716 33.0975L32.5 16.9086L11.0138 33.1084C10.6569 33.3775 10.1733 33.361 9.83736 33.0975L5.38333 29.7392C4.95825 29.4189 4.87386 28.8147 5.19483 28.39C5.25435 28.3114 5.32363 28.244 5.39973 28.1894L31.9189 8.19441C32.276 7.92528 32.7595 7.94185 33.0954 8.20528ZM32.5 10.1704L7.56511 28.9703L10.4329 31.1328L31.9047 14.9438C32.2406 14.68 32.7241 14.6635 33.0812 14.9326L54.567 31.1324L57.4349 28.9703L32.5 10.1704Z" fill="#7B2CBF"/>
<path d="M17.8931 35.3762H28.8783C29.4119 35.3762 29.844 35.8082 29.844 36.3412V47.3164C29.844 47.8493 29.4119 48.2812 28.8783 48.2812H17.8931C17.3596 48.2812 16.9272 47.8493 16.9272 47.3164V36.3412C16.9272 35.8082 17.3596 35.3762 17.8931 35.3762ZM27.9122 37.306H18.8588V46.3516H27.9122V37.306Z" fill="#7B2CBF"/>
<path d="M34.5519 35.3762H46.8048C47.3382 35.3762 47.7703 35.8082 47.7703 36.3412V55.035C47.7703 55.5679 47.3382 56 46.8048 56H34.5519C34.0185 56 33.5864 55.5679 33.5864 55.035V36.3412C33.5864 35.8082 34.0185 35.3762 34.5519 35.3762ZM45.8387 37.306H35.5174V54.0702H45.8387V37.306Z" fill="#7B2CBF"/>
<path d="M44.2641 13.5947H49.817C50.3504 13.5947 50.7831 14.0267 50.7831 14.5598V22.02C50.7831 22.553 50.3504 22.9846 49.817 22.9846C49.5797 22.9846 49.3623 22.8989 49.1939 22.7569L43.6831 18.6019C43.4322 18.4128 43.3 18.1249 43.3 17.8333H43.2982V14.5598C43.2982 14.0267 43.7307 13.5947 44.2641 13.5947ZM48.8513 15.5245H45.2298V17.3545L48.8513 20.0849V15.5245Z" fill="#7B2CBF"/>
<path d="M55.699 54.07C56.2321 54.07 56.6646 54.5021 56.6646 55.0348C56.6646 55.5678 56.2321 55.9998 55.699 55.9998H9.30118C8.76775 55.9998 8.33549 55.5678 8.33549 55.0348C8.33549 54.5021 8.76775 54.07 9.30118 54.07H55.699Z" fill="#7B2CBF"/>
</svg>
