<svg width="64" height="64" viewBox="0 0 64 64" fill="none" xmlns="http://www.w3.org/2000/svg">
<path fill-rule="evenodd" clip-rule="evenodd" d="M8.38298 17.5183H11.791C13.5636 17.5183 15.0291 18.8962 15.1637 20.6305L15.5297 20.7295C15.8563 20.8178 16.3095 20.762 16.8292 20.6175C19.0987 19.9858 23.2904 17.6893 25.7461 16.5752C27.1476 15.9396 28.3719 15.2586 29.9212 15.0677C32.3941 14.7625 35.043 15.5374 37.3705 16.4358C39.4822 17.2508 41.341 18.3049 43.3212 19.3697C44.4689 19.9871 45.9467 20.7738 47.2705 20.8528C47.679 20.8774 48.0753 20.8363 48.4702 20.7295L48.836 20.6305C48.9703 18.8935 50.4331 17.5183 52.2089 17.5183H55.6169C57.4807 17.5183 59 19.033 59 20.8913V39.687C59 41.5453 57.4807 43.0598 55.6169 43.0598H52.2089C50.4108 43.0598 48.933 41.6496 48.8317 39.8814C48.2397 40.0575 47.6638 40.3115 47.1208 40.5929L46.9611 40.6756L46.8929 40.8476C45.9809 43.1441 44.0324 44.5624 41.9045 44.2252C41.3647 45.0511 40.4824 45.6834 39.5704 46.0046C38.9728 46.215 38.3524 46.3002 37.7514 46.2497C37.2341 47.0234 36.3967 47.6049 35.5127 47.8848C34.6054 48.1722 33.698 48.1568 32.8678 47.888C32.8187 47.9436 32.767 47.9979 32.7127 48.0509C31.594 49.1422 29.7631 49.2027 28.3613 48.6848C27.0213 48.1897 25.6774 47.1749 24.562 46.2944C23.2145 45.2305 21.9155 44.1068 20.5599 43.0518C19.05 41.8765 17.0725 40.4462 15.168 39.8814C15.0662 41.6466 13.5861 43.0598 11.791 43.0598H8.38298C6.52231 43.0598 5 41.5418 5 39.687V20.8913C5 19.0359 6.52231 17.5183 8.38298 17.5183ZM26.3093 18.7778L23.5781 21.008C22.9225 21.5429 22.2516 22.0503 21.5757 22.5586C21.0794 22.9321 20.579 23.3086 20.1145 23.7217C19.648 24.1371 18.4149 25.0169 19.005 25.6637C19.3801 26.0745 19.9632 26.4432 20.4421 26.7197C21.7126 27.4532 23.3238 27.2959 24.6706 26.8785C26.6882 26.2541 28.5863 24.9348 30.0886 23.4771L31.2782 22.3224L46.5174 39.1073C47.3091 38.7071 48.1028 38.3958 48.8898 38.2157V22.2704C45.1902 23.2713 42.1796 20.0035 36.7925 17.9243C35.122 17.28 33.1509 16.6338 31.2558 16.5972C28.6042 16.546 28.1609 17.266 26.3093 18.7778ZM45.3419 40.4096L31.1982 24.8318C29.5107 26.4437 27.4282 27.8499 25.1893 28.5433C22.6716 29.3228 20.4138 29.0659 18.299 27.4388C17.0992 26.516 16.6413 25.0721 17.6549 23.7899C18.046 23.2954 18.4796 22.8403 18.9509 22.4213C19.4521 21.975 19.9865 21.5711 20.5227 21.1676C21.0223 20.7916 21.5214 20.4146 22.0122 20.0267C20.1895 20.9178 17.1295 22.758 15.1738 22.2861V38.2309C20.2239 39.4305 25.5351 45.9381 28.9177 47.1878C30.2955 47.6968 32.353 47.3846 31.9431 45.3837C34.0278 47.8592 37.3556 45.6581 36.561 44.0487C38.2317 45.7296 41.4668 43.6325 40.7312 42.0095C42.6971 43.4559 44.5007 42.3616 45.3419 40.4096ZM52.2089 19.115H55.6169C56.5967 19.115 57.3986 19.9143 57.3986 20.8913V39.687C57.3986 40.6639 56.5967 41.4632 55.6169 41.4632H52.2089C51.229 41.4632 50.4273 40.6639 50.4273 39.687V20.8913C50.4273 19.9143 51.229 19.115 52.2089 19.115ZM13.5725 39.5019L13.5089 20.4222C13.3013 19.6711 12.6081 19.115 11.791 19.115H8.38298C7.40298 19.115 6.60127 19.9143 6.60127 20.8913V39.687C6.60127 40.6639 7.40298 41.4632 8.38298 41.4632H11.791C12.7708 41.4632 13.5725 40.6639 13.5725 39.687V39.5019Z" fill="#7B2CBF"/>
</svg>
