<svg width="32" height="32" viewBox="0 0 32 32" fill="none" xmlns="http://www.w3.org/2000/svg">
<g clip-path="url(#clip0_2215_2342)">
<path fill-rule="evenodd" clip-rule="evenodd" d="M11.3492 7.96725L8.86743 9.78519V29.9958H11.3492V7.96725Z" fill="#444057"/>
<path fill-rule="evenodd" clip-rule="evenodd" d="M27.482 7.92238L21.4894 3.54648V5.02657L26.4685 8.66238L25.4551 9.4025L21.4894 6.50669V7.98681L24.4415 10.1426L23.4281 10.8826L21.4894 9.46694V10.947L22.4146 11.6226L14.4766 17.4191L14.4765 10.2665L12.3628 8.72294L21.4842 2.0625L28.5 7.17906L27.482 7.92238Z" fill="#444057"/>
<path fill-rule="evenodd" clip-rule="evenodd" d="M14.4766 22.2362V29.9958H25.1029L14.4766 22.2362Z" fill="#444057"/>
<path fill-rule="evenodd" clip-rule="evenodd" d="M26.5567 11.6871L28.4999 13.106V14.5861L25.5432 12.4271L26.5567 11.6871Z" fill="#444057"/>
<path fill-rule="evenodd" clip-rule="evenodd" d="M24.5299 13.1672L28.5 16.0662V17.5464L23.5164 13.9073L24.5299 13.1672Z" fill="#444057"/>
<path fill-rule="evenodd" clip-rule="evenodd" d="M22.5029 14.6472L28.5001 19.0264V20.5064L21.4895 15.3873L22.5029 14.6472Z" fill="#444057"/>
<path fill-rule="evenodd" clip-rule="evenodd" d="M15.4084 19.8276L21.4893 15.3874V16.8675L28.4999 21.9866V23.4668L21.4893 18.3476V19.8276L28.4999 24.9468V26.427L21.4893 21.3078V22.7879L28.4999 27.9071V29.3872L15.4084 19.8276Z" fill="#444057"/>
<path fill-rule="evenodd" clip-rule="evenodd" d="M27.5706 10.9451L28.5 10.2643V11.6259L27.5706 10.9451Z" fill="#444057"/>
<path fill-rule="evenodd" clip-rule="evenodd" d="M8.1544 10.3076L6.01343 11.8759V29.9958H8.1544V10.3076Z" fill="#444057"/>
<path fill-rule="evenodd" clip-rule="evenodd" d="M5.64095 12.1487L3.5 13.717V29.9958H5.64098L5.64095 12.1487Z" fill="#444057"/>
</g>
<defs>
<clipPath id="clip0_2215_2342">
<rect width="32" height="32" fill="white"/>
</clipPath>
</defs>
</svg>
