<svg width="24" height="24" viewBox="0 0 24 24" fill="none" xmlns="http://www.w3.org/2000/svg">
<path d="M17.657 16.4135L13.414 20.6565C13.2284 20.8423 13.0081 20.9896 12.7656 21.0902C12.523 21.1907 12.2631 21.2424 12.0005 21.2424C11.738 21.2424 11.478 21.1907 11.2354 21.0902C10.9929 20.9896 10.7726 20.8423 10.587 20.6565L6.343 16.4135C5.22422 15.2947 4.46234 13.8692 4.15369 12.3174C3.84504 10.7656 4.00349 9.15706 4.60901 7.69527C5.21452 6.23349 6.2399 4.98408 7.55548 4.10505C8.87107 3.22602 10.4178 2.75684 12 2.75684C13.5822 2.75684 15.1289 3.22602 16.4445 4.10505C17.7601 4.98408 18.7855 6.23349 19.391 7.69527C19.9965 9.15706 20.155 10.7656 19.8463 12.3174C19.5377 13.8692 18.7758 15.2947 17.657 16.4135Z" stroke="#121212" stroke-width="2" stroke-linecap="round" stroke-linejoin="round"/>
<path d="M15 10.7565C15 11.5522 14.6839 12.3153 14.1213 12.8779C13.5587 13.4405 12.7957 13.7565 12 13.7565C11.2044 13.7565 10.4413 13.4405 9.87868 12.8779C9.31607 12.3153 9 11.5522 9 10.7565C9 9.96089 9.31607 9.19783 9.87868 8.63522C10.4413 8.07261 11.2044 7.75654 12 7.75654C12.7957 7.75654 13.5587 8.07261 14.1213 8.63522C14.6839 9.19783 15 9.96089 15 10.7565Z" stroke="#121212" stroke-width="2" stroke-linecap="round" stroke-linejoin="round"/>
</svg>
