<svg width="100" height="100" viewBox="0 0 100 100" fill="none" xmlns="http://www.w3.org/2000/svg">
<path d="M98.8754 92.8352C98.8055 92.8398 98.7354 92.8298 98.6712 92.8063L76.8414 89.1547C76.5951 89.1152 76.3727 89.0054 76.2119 88.8441C76.051 88.6828 75.9617 88.4797 75.9589 88.2694V29.6568C75.9544 29.5191 75.9891 29.3825 76.0601 29.2584C76.1311 29.1342 76.2364 29.026 76.3672 28.9428C76.4924 28.854 76.6398 28.7899 76.7985 28.7552C76.9573 28.7206 77.1232 28.7162 77.2842 28.7425L99.114 32.3941C99.3601 32.4335 99.5825 32.5427 99.7438 32.7035C99.9051 32.8642 99.9954 33.0667 99.9997 33.2768V91.8947C100.004 92.032 99.9694 92.1682 99.8984 92.2919C99.8274 92.4156 99.7221 92.5233 99.5914 92.606C99.4978 92.6842 99.3858 92.745 99.2624 92.7845C99.1391 92.824 99.0072 92.8413 98.8754 92.8352ZM78.1478 87.5291L97.7981 90.8382V34.0777L78.1353 30.7686V87.5291H78.1478Z" fill="#444057"/>
<path d="M55.0072 92.8364C54.7615 92.8313 54.5241 92.7612 54.3288 92.6361C54.2037 92.5485 54.1025 92.4394 54.0321 92.3161C53.9616 92.1929 53.9235 92.0584 53.9204 91.9217V33.2789C53.9232 33.0685 54.0126 32.8654 54.1735 32.7039C54.3343 32.5425 54.5568 32.4327 54.803 32.3932L76.6333 28.7397C76.7948 28.7163 76.9605 28.722 77.1192 28.7566C77.2779 28.7911 77.426 28.8537 77.5536 28.9401C77.679 29.0274 77.7804 29.1365 77.8509 29.2598C77.9214 29.3831 77.9592 29.5177 77.962 29.6544V88.2999C77.9632 88.5113 77.8748 88.7163 77.7125 88.8781C77.5502 89.0398 77.3247 89.1479 77.0762 89.1829L55.2491 92.8364H55.0072ZM56.0972 34.0328V90.8093L75.7507 87.4985V30.7088L56.0972 34.0328Z" fill="#444057"/>
<path d="M54.8404 93.8748C54.7344 93.8804 54.628 93.8707 54.526 93.846L32.6654 88.3776C32.4385 88.3207 32.2398 88.2043 32.0987 88.0459C31.9576 87.8874 31.8817 87.6953 31.8823 87.498L31.8823 65.3656C31.8973 65.1335 32.0187 64.915 32.2214 64.7551C32.4241 64.5952 32.6928 64.506 32.9721 64.506C33.2513 64.506 33.52 64.5952 33.7227 64.7551C33.9254 64.915 34.0468 65.1335 34.0618 65.3656L34.0618 86.8279L53.7429 91.7309V34.7296C53.7349 34.6063 53.7572 34.4831 53.8084 34.3673C53.8595 34.2515 53.9385 34.1455 54.0405 34.056C54.1425 33.9664 54.2653 33.8951 54.4015 33.8463C54.5376 33.7976 54.6843 33.7725 54.8326 33.7725C54.9808 33.7725 55.1275 33.7976 55.2637 33.8463C55.3999 33.8951 55.5227 33.9664 55.6247 34.056C55.7267 34.1455 55.8056 34.2515 55.8568 34.3673C55.908 34.4831 55.9303 34.6063 55.9223 34.7296V92.9665C55.9205 93.1095 55.8797 93.2502 55.8028 93.3781C55.726 93.506 55.6152 93.6177 55.4789 93.7047C55.2895 93.8102 55.0682 93.8691 54.8404 93.8748Z" fill="#444057"/>
<path d="M27.1927 71.9907C26.8898 71.9874 26.6 71.867 26.3839 71.6547C24.5173 69.6326 22.4423 67.5451 20.221 65.3581C10.7575 55.8914 -0.000244141 45.1804 -0.000244141 32.721C-0.000244141 25.5015 2.86767 18.5778 7.97259 13.4728C13.0775 8.36792 20.0013 5.5 27.2207 5.5C34.4402 5.5 41.3639 8.36792 46.4689 13.4728C51.5738 18.5778 54.4417 25.5015 54.4417 32.721C54.4417 45.2831 43.5533 56.0532 33.9653 65.5572C31.8094 67.6789 29.7562 69.701 27.9362 71.6889C27.7369 71.8822 27.4703 71.9904 27.1927 71.9907ZM27.1927 7.69634C20.5676 7.7054 14.2165 10.3412 9.53184 15.0259C4.84719 19.7105 2.21137 26.0617 2.20232 32.6867C2.20232 44.272 12.6085 54.6471 21.7703 63.7964C23.6898 65.7159 25.5035 67.5296 27.1927 69.3215C28.8415 67.6011 30.6148 65.8185 32.4814 63.9675C41.7769 54.7715 52.3169 44.3311 52.3169 32.6774C52.3169 18.9114 41.0334 7.69634 27.1927 7.69634Z" fill="#444057"/>
<path d="M40.4609 28.5431H13.9212C13.7006 28.5448 13.485 28.4777 13.3043 28.3511C13.1237 28.2246 12.987 28.0448 12.9132 27.8369C12.8383 27.6262 12.8291 27.3976 12.8868 27.1816C12.9446 26.9655 13.0666 26.772 13.2368 26.6268L26.5051 16.0184C26.6984 15.8703 26.9351 15.79 27.1786 15.79C27.4221 15.79 27.6588 15.8703 27.8521 16.0184L41.0551 26.5957C41.1997 26.6919 41.3197 26.821 41.4051 26.9724C41.4905 27.1237 41.539 27.2931 41.5466 27.4667C41.5441 27.7531 41.4286 28.0268 41.2253 28.2284C41.022 28.43 40.7472 28.5431 40.4609 28.5431ZM16.9886 26.3655H37.3623L27.1584 18.2147L16.9886 26.3655Z" fill="#7B2CBF"/>
<path d="M37.8142 47.1026H30.9327C30.7905 47.1043 30.6494 47.0775 30.5177 47.0239C30.3859 46.9702 30.2663 46.8907 30.1657 46.7902C30.0651 46.6896 29.9857 46.5699 29.932 46.4382C29.8783 46.3065 29.8516 46.1653 29.8532 46.0231V39.9256C29.8532 39.2466 29.5835 38.5954 29.1033 38.1152C28.6232 37.635 27.9719 37.3653 27.2929 37.3653C26.6139 37.3653 25.9626 37.635 25.4825 38.1152C25.0023 38.5954 24.7326 39.2466 24.7326 39.9256V46.0231C24.7347 46.1652 24.7083 46.3063 24.655 46.438C24.6016 46.5697 24.5225 46.6894 24.4222 46.79C24.3218 46.8906 24.2024 46.9701 24.0708 47.0238C23.9392 47.0775 23.7983 47.1043 23.6562 47.1026H16.585C16.4427 47.1043 16.3016 47.0775 16.1699 47.0239C16.0382 46.9702 15.9185 46.8907 15.8179 46.7902C15.7173 46.6896 15.6379 46.5699 15.5842 46.4382C15.5306 46.3065 15.5038 46.1653 15.5054 46.0231V27.432C15.5038 27.2899 15.5306 27.1489 15.5843 27.0174C15.638 26.8858 15.7175 26.7663 15.8181 26.666C15.9187 26.5657 16.0384 26.4865 16.1701 26.4332C16.3018 26.3799 16.4429 26.3535 16.585 26.3556H37.836C37.9779 26.3535 38.1188 26.3799 38.2504 26.4332C38.3819 26.4866 38.5014 26.5658 38.6018 26.6662C38.7021 26.7666 38.7813 26.886 38.8347 27.0176C38.8881 27.1491 38.9145 27.29 38.9124 27.432V46.0231C38.9036 46.3099 38.7845 46.5821 38.5799 46.7832C38.3753 46.9843 38.101 47.0988 37.8142 47.1026ZM32.0558 44.9467H36.7254V28.5426H17.6613V44.9809H22.5705V39.963C22.5542 39.3291 22.6651 38.6984 22.8964 38.108C23.1278 37.5177 23.475 36.9796 23.9176 36.5256C24.3601 36.0715 24.8891 35.7107 25.4734 35.4643C26.0576 35.2179 26.6853 35.0909 27.3193 35.0909C27.9534 35.0909 28.5811 35.2179 29.1653 35.4643C29.7495 35.7107 30.2785 36.0715 30.7211 36.5256C31.1637 36.9796 31.5109 37.5177 31.7423 38.108C31.9736 38.6984 32.0845 39.3291 32.0682 39.963V44.9405L32.0558 44.9467Z" fill="#7B2CBF"/>
<path d="M79.3948 15.7385H59.9294C59.783 15.7464 59.6365 15.7243 59.4989 15.6737C59.3612 15.6231 59.2354 15.545 59.1289 15.4441C59.0225 15.3432 58.9377 15.2217 58.8798 15.087C58.8219 14.9523 58.792 14.8072 58.792 14.6606C58.792 14.5139 58.8219 14.3688 58.8798 14.2341C58.9377 14.0994 59.0225 13.9779 59.1289 13.877C59.2354 13.7761 59.3612 13.698 59.4989 13.6474C59.6365 13.5968 59.783 13.5747 59.9294 13.5826H79.3948C79.5412 13.5747 79.6877 13.5968 79.8253 13.6474C79.9629 13.698 80.0888 13.7761 80.1952 13.877C80.3017 13.9779 80.3865 14.0994 80.4444 14.2341C80.5023 14.3688 80.5322 14.5139 80.5322 14.6606C80.5322 14.8072 80.5023 14.9523 80.4444 15.087C80.3865 15.2217 80.3017 15.3432 80.1952 15.4441C80.0888 15.545 79.9629 15.6231 79.8253 15.6737C79.6877 15.7243 79.5412 15.7464 79.3948 15.7385Z" fill="#444057"/>
<path d="M88.0531 22.2467H77.2394C76.9635 22.2319 76.7038 22.1119 76.5137 21.9113C76.3237 21.7108 76.2178 21.445 76.2178 21.1688C76.2178 20.8925 76.3237 20.6267 76.5137 20.4262C76.7038 20.2257 76.9635 20.1056 77.2394 20.0908H88.0531C88.3289 20.1056 88.5886 20.2257 88.7787 20.4262C88.9687 20.6267 89.0746 20.8925 89.0746 21.1688C89.0746 21.445 88.9687 21.7108 88.7787 21.9113C88.5886 22.1119 88.3289 22.2319 88.0531 22.2467Z" fill="#444057"/>
</svg>
