<svg width="100" height="101" viewBox="0 0 100 101" fill="none" xmlns="http://www.w3.org/2000/svg">
<path d="M81.8843 100.465H18.0874C17.9477 100.467 17.8092 100.441 17.6799 100.388C17.5505 100.336 17.433 100.258 17.3341 100.159C17.2352 100.061 17.157 99.9433 17.1041 99.8141C17.0511 99.6849 17.0245 99.5464 17.0257 99.4068V18.553C17.0241 18.4132 17.0504 18.2744 17.1032 18.1448C17.156 18.0153 17.2341 17.8976 17.333 17.7987C17.4319 17.6998 17.5496 17.6216 17.6791 17.5688C17.8087 17.5161 17.9475 17.4897 18.0874 17.4914H81.9149C82.0553 17.4889 82.1948 17.5146 82.325 17.567C82.4553 17.6194 82.5737 17.6975 82.6733 17.7965C82.7728 17.8954 82.8515 18.0134 82.9047 18.1434C82.9578 18.2733 82.9844 18.4126 82.9827 18.553V99.4068C82.9724 99.6912 82.8521 99.9604 82.6473 100.158C82.4424 100.355 82.1689 100.466 81.8843 100.465ZM19.146 98.3237H80.8563V19.6116H19.146V98.3237Z" fill="#444057"/>
<path d="M90.3959 91.9506H81.8844C81.6036 91.9506 81.3343 91.839 81.1358 91.6405C80.9373 91.442 80.8258 91.1727 80.8258 90.892C80.8258 90.6112 80.9373 90.3419 81.1358 90.1434C81.3343 89.9449 81.6036 89.8334 81.8844 89.8334H89.3343V11.0998H27.6606V18.5528C27.646 18.8241 27.528 19.0795 27.3308 19.2664C27.1335 19.4533 26.8722 19.5575 26.6005 19.5575C26.3288 19.5575 26.0674 19.4533 25.8702 19.2664C25.673 19.0795 25.5549 18.8241 25.5404 18.5528V10.0382C25.5387 9.89847 25.5651 9.75982 25.6179 9.63044C25.6707 9.50106 25.7489 9.38356 25.8478 9.28489C25.9468 9.18622 26.0645 9.10838 26.194 9.05594C26.3236 9.00351 26.4623 8.97755 26.602 8.97961H90.3959C90.5354 8.97796 90.6738 9.00423 90.803 9.05684C90.9321 9.10946 91.0495 9.18738 91.1481 9.286C91.2467 9.38463 91.3247 9.50198 91.3773 9.63116C91.4299 9.76033 91.4562 9.89873 91.4545 10.0382V90.895C91.4521 91.1748 91.3397 91.4423 91.1416 91.6398C90.9435 91.8373 90.6757 91.949 90.3959 91.9506Z" fill="#444057"/>
<path d="M98.9075 83.445H90.396C90.252 83.4527 90.1079 83.431 89.9726 83.3812C89.8372 83.3315 89.7134 83.2546 89.6087 83.1554C89.5041 83.0562 89.4207 82.9367 89.3637 82.8042C89.3067 82.6718 89.2774 82.5291 89.2774 82.3848C89.2774 82.2406 89.3067 82.0979 89.3637 81.9654C89.4207 81.8329 89.5041 81.7135 89.6087 81.6143C89.7134 81.5151 89.8372 81.4382 89.9726 81.3884C90.1079 81.3387 90.252 81.317 90.396 81.3247H97.849V2.58507H36.1722V10.038C36.1722 10.3188 36.0607 10.5881 35.8622 10.7866C35.6636 10.9851 35.3944 11.0966 35.1136 11.0966C34.8329 11.0966 34.5636 10.9851 34.3651 10.7866C34.1666 10.5881 34.055 10.3188 34.055 10.038V1.52648C34.053 1.38689 34.079 1.24831 34.1314 1.11895C34.1839 0.989581 34.2618 0.872059 34.3605 0.773346C34.4592 0.674633 34.5767 0.596734 34.7061 0.544265C34.8355 0.491796 34.974 0.465825 35.1136 0.467887H98.9412C99.0808 0.465825 99.2194 0.491796 99.3487 0.544265C99.4781 0.596734 99.5956 0.674633 99.6943 0.773346C99.7931 0.872059 99.8709 0.989581 99.9234 1.11895C99.9759 1.24831 100.002 1.38689 99.9998 1.52648V82.3802C99.986 82.6629 99.8656 82.9298 99.663 83.1273C99.4604 83.3249 99.1905 83.4383 98.9075 83.445Z" fill="#444057"/>
<path d="M5.30171 89.7966C5.0897 89.7966 4.88243 89.7338 4.70602 89.6162C4.52961 89.4986 4.39197 89.3314 4.31043 89.1357L0.0699388 78.5039C0.0148554 78.379 -0.00827618 78.2423 0.00262917 78.1062V31.2956C0.00262917 29.8813 0.56447 28.5249 1.56455 27.5248C2.56463 26.5247 3.92104 25.9629 5.33536 25.9629C6.74969 25.9629 8.10609 26.5247 9.10617 27.5248C10.1063 28.5249 10.6681 29.8813 10.6681 31.2956V78.1062C10.6624 78.2411 10.6398 78.3747 10.6008 78.5039L6.3603 89.1357C6.25686 89.3287 6.10472 89.4912 5.91901 89.6071C5.7333 89.7231 5.52048 89.7884 5.30171 89.7966ZM2.11981 77.9073L5.30171 85.8927L8.48054 77.9104V31.3048C8.49376 30.8789 8.42127 30.4546 8.26739 30.0572C8.1135 29.6598 7.88136 29.2973 7.58473 28.9914C7.2881 28.6854 6.93303 28.4421 6.54059 28.276C6.14815 28.1099 5.72633 28.0243 5.30018 28.0243C4.87402 28.0243 4.45221 28.1099 4.05977 28.276C3.66733 28.4421 3.31225 28.6854 3.01562 28.9914C2.71899 29.2973 2.48685 29.6598 2.33297 30.0572C2.17909 30.4546 2.1066 30.8789 2.11981 31.3048V77.9073Z" fill="#444057"/>
<path d="M9.57284 38.755H1.06128C0.780521 38.755 0.511265 38.6435 0.312741 38.4449C0.114216 38.2464 0.00268555 37.9772 0.00268555 37.6964C0.00268555 37.4156 0.114216 37.1464 0.312741 36.9479C0.511265 36.7493 0.780521 36.6378 1.06128 36.6378H9.57284C9.71257 36.6358 9.85129 36.6617 9.98082 36.7141C10.1104 36.7666 10.2281 36.8444 10.327 36.9431C10.426 37.0418 10.5042 37.1593 10.557 37.2886C10.6098 37.418 10.6361 37.5567 10.6345 37.6964C10.6329 37.9772 10.5204 38.246 10.3216 38.4442C10.1227 38.6425 9.85364 38.7542 9.57284 38.755Z" fill="#444057"/>
<path d="M52.6937 38.5591H26.5961C26.3781 38.5617 26.1649 38.4957 25.9865 38.3706C25.8081 38.2454 25.6735 38.0674 25.6017 37.8616C25.529 37.6534 25.5214 37.4281 25.5799 37.2155C25.6384 37.0029 25.7602 36.8131 25.9291 36.6714L38.9902 26.2324C39.1802 26.088 39.4123 26.0098 39.651 26.0098C39.8897 26.0098 40.1218 26.088 40.3119 26.2324L53.3056 36.6347C53.4444 36.732 53.5584 36.8605 53.6386 37.0098C53.7188 37.159 53.763 37.325 53.7676 37.4944C53.7701 37.6357 53.744 37.7761 53.6908 37.907C53.6376 38.0379 53.5585 38.1567 53.4581 38.2562C53.3578 38.3557 53.2383 38.4339 53.1069 38.4859C52.9755 38.538 52.835 38.5629 52.6937 38.5591ZM29.6097 36.4389H49.6464L39.6449 28.423L29.6097 36.4389Z" fill="#7B2CBF"/>
<path d="M50.0839 56.8271H43.3254C43.1858 56.8292 43.0472 56.8032 42.9179 56.7508C42.7885 56.6983 42.671 56.6204 42.5723 56.5217C42.4735 56.423 42.3956 56.3055 42.3432 56.1761C42.2907 56.0467 42.2647 55.9081 42.2668 55.7686V49.7903C42.2786 49.4524 42.2222 49.1157 42.1011 48.8001C41.9799 48.4845 41.7964 48.1965 41.5616 47.9533C41.3268 47.7102 41.0454 47.5168 40.7342 47.3847C40.423 47.2526 40.0884 47.1845 39.7504 47.1845C39.4123 47.1845 39.0777 47.2526 38.7665 47.3847C38.4553 47.5168 38.1739 47.7102 37.9391 47.9533C37.7043 48.1965 37.5208 48.4845 37.3996 48.8001C37.2785 49.1157 37.2221 49.4524 37.2339 49.7903V55.7839C37.2335 55.9223 37.2056 56.0593 37.1519 56.1869C37.0982 56.3145 37.0197 56.4302 36.921 56.5272C36.8222 56.6243 36.7052 56.7007 36.5767 56.7522C36.4481 56.8037 36.3107 56.8292 36.1722 56.8271H29.218C29.0782 56.8292 28.9395 56.8032 28.81 56.7508C28.6805 56.6984 28.5627 56.6205 28.4638 56.5219C28.3648 56.4232 28.2866 56.3057 28.2338 56.1763C28.181 56.0469 28.1547 55.9083 28.1563 55.7686V37.4971C28.1551 37.3575 28.1817 37.2191 28.2347 37.0899C28.2876 36.9607 28.3659 36.8434 28.4647 36.7448C28.5636 36.6462 28.6811 36.5683 28.8105 36.5157C28.9398 36.4632 29.0784 36.4369 29.218 36.4385H50.1175C50.257 36.4369 50.3954 36.4632 50.5245 36.5158C50.6537 36.5684 50.7711 36.6463 50.8697 36.7449C50.9683 36.8436 51.0462 36.9609 51.0989 37.0901C51.1515 37.2193 51.1777 37.3577 51.1761 37.4971V55.7808C51.1643 56.0624 51.044 56.3286 50.8404 56.5236C50.6368 56.7186 50.3658 56.8274 50.0839 56.8271ZM44.387 54.71H48.9763V38.5588H30.2429V54.7222H35.0769V49.7903C35.0818 48.5527 35.5755 47.3672 36.4506 46.4921C37.3257 45.617 38.5112 45.1232 39.7488 45.1184C40.3608 45.1184 40.9667 45.2394 41.5316 45.4746C42.0965 45.7098 42.6094 46.0545 43.0405 46.4888C43.4716 46.923 43.8126 47.4383 44.0437 48.005C44.2748 48.5716 44.3915 49.1783 44.387 49.7903V54.7253V54.71Z" fill="#7B2CBF"/>
<path d="M73.4033 34.4929H60.6482C60.5042 34.5006 60.3601 34.4789 60.2247 34.4291C60.0894 34.3794 59.9656 34.3025 59.8609 34.2033C59.7562 34.1041 59.6729 33.9846 59.6159 33.8521C59.5589 33.7197 59.5295 33.577 59.5295 33.4327C59.5295 33.2885 59.5589 33.1458 59.6159 33.0133C59.6729 32.8809 59.7562 32.7614 59.8609 32.6622C59.9656 32.563 60.0894 32.4861 60.2247 32.4363C60.3601 32.3866 60.5042 32.3649 60.6482 32.3726H73.4002C73.54 32.371 73.6786 32.3973 73.808 32.4501C73.9374 32.5029 74.0548 32.5811 74.1535 32.6801C74.2522 32.779 74.33 32.8968 74.3825 33.0263C74.4349 33.1558 74.4609 33.2945 74.4588 33.4343C74.4564 33.7138 74.3445 33.9812 74.1472 34.1791C73.9498 34.377 73.6828 34.4897 73.4033 34.4929Z" fill="#444057"/>
<path d="M73.4033 40.8747H60.6482C60.5042 40.8824 60.3601 40.8608 60.2247 40.811C60.0894 40.7612 59.9656 40.6844 59.8609 40.5852C59.7562 40.486 59.6729 40.3665 59.6159 40.234C59.5589 40.1015 59.5295 39.9588 59.5295 39.8146C59.5295 39.6704 59.5589 39.5277 59.6159 39.3952C59.6729 39.2627 59.7562 39.1432 59.8609 39.044C59.9656 38.9448 60.0894 38.868 60.2247 38.8182C60.3601 38.7684 60.5042 38.7467 60.6482 38.7545H73.4002C73.5398 38.7532 73.6783 38.7799 73.8075 38.8328C73.9367 38.8858 74.054 38.964 74.1526 39.0629C74.2512 39.1617 74.329 39.2793 74.3816 39.4086C74.4342 39.538 74.4604 39.6765 74.4588 39.8161C74.4564 40.0956 74.3445 40.363 74.1472 40.5609C73.9498 40.7589 73.6828 40.8715 73.4033 40.8747Z" fill="#444057"/>
<path d="M73.4033 47.2692H60.6482C60.5042 47.277 60.3601 47.2553 60.2247 47.2055C60.0894 47.1557 59.9656 47.0789 59.8609 46.9797C59.7562 46.8805 59.6729 46.761 59.6159 46.6285C59.5589 46.496 59.5295 46.3533 59.5295 46.2091C59.5295 46.0649 59.5589 45.9222 59.6159 45.7897C59.6729 45.6572 59.7562 45.5377 59.8609 45.4385C59.9656 45.3393 60.0894 45.2625 60.2247 45.2127C60.3601 45.1629 60.5042 45.1413 60.6482 45.149H73.4002C73.5397 45.1473 73.6781 45.1736 73.8073 45.2262C73.9364 45.2789 74.0538 45.3568 74.1524 45.4554C74.251 45.554 74.329 45.6714 74.3816 45.8005C74.4342 45.9297 74.4605 46.0681 74.4588 46.2076C74.4519 46.4859 74.3387 46.7511 74.1424 46.9485C73.946 47.1459 73.6816 47.2607 73.4033 47.2692Z" fill="#444057"/>
<path d="M73.4033 53.6608H60.6482C60.5042 53.6686 60.3601 53.6469 60.2247 53.5971C60.0894 53.5473 59.9656 53.4705 59.8609 53.3713C59.7562 53.2721 59.6729 53.1526 59.6159 53.0201C59.5589 52.8876 59.5295 52.7449 59.5295 52.6007C59.5295 52.4565 59.5589 52.3138 59.6159 52.1813C59.6729 52.0488 59.7562 51.9293 59.8609 51.8301C59.9656 51.7309 60.0894 51.6541 60.2247 51.6043C60.3601 51.5545 60.5042 51.5329 60.6482 51.5406H73.4002C73.5398 51.5394 73.6783 51.566 73.8075 51.619C73.9367 51.6719 74.054 51.7501 74.1526 51.849C74.2512 51.9479 74.329 52.0654 74.3816 52.1948C74.4342 52.3241 74.4604 52.4626 74.4588 52.6022C74.4564 52.8817 74.3445 53.1491 74.1472 53.3471C73.9498 53.545 73.6828 53.6576 73.4033 53.6608Z" fill="#444057"/>
<path d="M73.4036 68.5334H26.5655C26.2942 68.5188 26.0388 68.4007 25.8519 68.2035C25.665 68.0063 25.5608 67.745 25.5608 67.4733C25.5608 67.2016 25.665 66.9402 25.8519 66.743C26.0388 66.5458 26.2942 66.4277 26.5655 66.4131H73.376C73.5158 66.4119 73.6544 66.4385 73.7837 66.4915C73.9131 66.5444 74.0306 66.6225 74.1295 66.7214C74.2283 66.8202 74.3064 66.9377 74.3594 67.0671C74.4123 67.1964 74.4389 67.335 74.4377 67.4748C74.4427 67.6131 74.4195 67.7509 74.3696 67.88C74.3197 68.0091 74.2441 68.1267 74.1474 68.2257C74.0507 68.3246 73.9349 68.403 73.8071 68.4559C73.6792 68.5087 73.5419 68.5351 73.4036 68.5334Z" fill="#444057"/>
<path d="M73.4034 74.927H49.9859C49.7146 74.9124 49.4592 74.7943 49.2723 74.5971C49.0854 74.3999 48.9812 74.1385 48.9812 73.8668C48.9812 73.5951 49.0854 73.3338 49.2723 73.1365C49.4592 72.9393 49.7146 72.8213 49.9859 72.8067H73.4034C73.5429 72.8051 73.6813 72.8313 73.8104 72.8839C73.9396 72.9366 74.057 73.0145 74.1556 73.1131C74.2542 73.2117 74.3321 73.3291 74.3848 73.4583C74.4374 73.5874 74.4636 73.7258 74.462 73.8653C74.4596 74.1456 74.3474 74.4138 74.1495 74.6123C73.9516 74.8108 73.6837 74.9238 73.4034 74.927Z" fill="#444057"/>
<path d="M45.7454 81.322H26.602C26.458 81.3297 26.3139 81.308 26.1786 81.2582C26.0432 81.2085 25.9194 81.1316 25.8148 81.0324C25.7101 80.9332 25.6267 80.8137 25.5698 80.6812C25.5128 80.5488 25.4834 80.4061 25.4834 80.2618C25.4834 80.1176 25.5128 79.9749 25.5698 79.8424C25.6267 79.71 25.7101 79.5905 25.8148 79.4913C25.9194 79.3921 26.0432 79.3152 26.1786 79.2654C26.3139 79.2157 26.458 79.194 26.602 79.2017H45.7454C45.885 79.2001 46.0236 79.2263 46.1529 79.2789C46.2822 79.3315 46.3998 79.4094 46.4987 79.5079C46.5975 79.6065 46.6757 79.7239 46.7287 79.853C46.7816 79.9822 46.8083 80.1207 46.8071 80.2603C46.7993 80.5394 46.685 80.805 46.4876 81.0025C46.2901 81.1999 46.0245 81.3143 45.7454 81.322Z" fill="#444057"/>
<path d="M73.4035 81.322H62.7717C62.6277 81.3297 62.4836 81.308 62.3483 81.2582C62.2129 81.2085 62.0891 81.1316 61.9845 81.0324C61.8798 80.9332 61.7964 80.8137 61.7394 80.6812C61.6825 80.5488 61.6531 80.4061 61.6531 80.2618C61.6531 80.1176 61.6825 79.9749 61.7394 79.8424C61.7964 79.71 61.8798 79.5905 61.9845 79.4913C62.0891 79.3921 62.2129 79.3152 62.3483 79.2654C62.4836 79.2157 62.6277 79.194 62.7717 79.2017H73.4035C73.543 79.2001 73.6814 79.2263 73.8106 79.279C73.9397 79.3316 74.0571 79.4095 74.1557 79.5081C74.2543 79.6068 74.3322 79.7241 74.3849 79.8533C74.4375 79.9824 74.4637 80.1208 74.4621 80.2603C74.4544 80.5389 74.3405 80.8041 74.1437 81.0014C73.9469 81.1988 73.6821 81.3135 73.4035 81.322Z" fill="#444057"/>
<path d="M37.2338 74.9274H26.602C26.458 74.9352 26.3139 74.9135 26.1786 74.8637C26.0432 74.8139 25.9194 74.7371 25.8148 74.6379C25.7101 74.5387 25.6267 74.4192 25.5698 74.2867C25.5128 74.1542 25.4834 74.0115 25.4834 73.8673C25.4834 73.7231 25.5128 73.5804 25.5698 73.4479C25.6267 73.3154 25.7101 73.1959 25.8148 73.0967C25.9194 72.9975 26.0432 72.9207 26.1786 72.8709C26.3139 72.8211 26.458 72.7995 26.602 72.8072H37.2338C37.3733 72.8056 37.5117 72.8318 37.6409 72.8844C37.77 72.937 37.8874 73.015 37.986 73.1136C38.0847 73.2122 38.1626 73.3296 38.2152 73.4587C38.2678 73.5879 38.2941 73.7263 38.2924 73.8658C38.2847 74.1444 38.1708 74.4095 37.974 74.6069C37.7772 74.8043 37.5124 74.919 37.2338 74.9274Z" fill="#444057"/>
<path d="M73.4036 87.6789H26.5655C26.2942 87.6643 26.0388 87.5463 25.8519 87.3491C25.665 87.1518 25.5608 86.8905 25.5608 86.6188C25.5608 86.3471 25.665 86.0857 25.8519 85.8885C26.0388 85.6913 26.2942 85.5732 26.5655 85.5587H73.376C73.5156 85.557 73.6542 85.5833 73.7835 85.6359C73.9129 85.6884 74.0304 85.7663 74.1293 85.8649C74.2282 85.9635 74.3064 86.0808 74.3593 86.21C74.4123 86.3392 74.4389 86.4776 74.4377 86.6173C74.4426 86.7557 74.4195 86.8937 74.3696 87.0229C74.3198 87.1522 74.2443 87.2699 74.1476 87.3692C74.051 87.4684 73.9352 87.547 73.8073 87.6002C73.6794 87.6535 73.5421 87.6802 73.4036 87.6789Z" fill="#444057"/>
</svg>
