<svg width="100" height="101" viewBox="0 0 100 101" fill="none" xmlns="http://www.w3.org/2000/svg">
<path d="M75.5425 30.2706H54.2954C54.1239 30.2739 53.9544 30.2328 53.8033 30.1514C53.6523 30.07 53.5249 29.951 53.4333 29.8059C53.3392 29.6609 53.2783 29.4969 53.255 29.3257C53.2318 29.1544 53.2467 28.9802 53.2988 28.8154L63.9285 1.1941C64.0083 0.994445 64.1444 0.822282 64.3202 0.698539C64.4961 0.574797 64.7041 0.504804 64.919 0.49707C65.1356 0.499385 65.3464 0.567208 65.5238 0.691619C65.7011 0.81603 65.8366 0.991202 65.9125 1.1941L76.5361 28.8306C76.5963 28.9942 76.6155 29.17 76.592 29.3426C76.5686 29.5153 76.5032 29.6796 76.4016 29.8212C76.3061 29.9606 76.1778 30.0745 76.028 30.1529C75.8783 30.2312 75.7116 30.2716 75.5425 30.2706ZM55.8148 28.152H73.9865L64.919 4.52026L55.8148 28.152Z" fill="#444057"/>
<path d="M86.1662 100.435H64.9191C64.7794 100.437 64.6408 100.411 64.5114 100.359C64.382 100.306 64.2643 100.228 64.1655 100.13C64.0666 100.031 63.9884 99.9139 63.9357 99.7846C63.8829 99.6553 63.8566 99.5168 63.8582 99.3771V39.8363C63.8566 39.6965 63.8829 39.5578 63.9356 39.4284C63.9884 39.299 64.0664 39.1814 64.1653 39.0825C64.2641 38.9837 64.3817 38.9056 64.5112 38.8529C64.6406 38.8001 64.7793 38.7738 64.9191 38.7755H86.1662C86.3059 38.7738 86.4446 38.8001 86.5741 38.8529C86.7035 38.9056 86.8211 38.9837 86.9199 39.0825C87.0188 39.1814 87.0969 39.299 87.1496 39.4284C87.2023 39.5578 87.2286 39.6965 87.227 39.8363V99.3435C87.2294 99.4849 87.2039 99.6255 87.1518 99.757C87.0997 99.8885 87.0222 100.008 86.9236 100.11C86.825 100.211 86.7073 100.292 86.5773 100.348C86.4473 100.404 86.3076 100.433 86.1662 100.435ZM65.9891 98.2949H85.1206V40.8941H65.9768L65.9891 98.2949Z" fill="#444057"/>
<path d="M98.9084 40.8946H1.14113C1.00177 40.8962 0.863486 40.87 0.734411 40.8174C0.605336 40.7648 0.488076 40.687 0.389524 40.5884C0.290973 40.4899 0.213119 40.3726 0.160542 40.2435C0.107965 40.1145 0.081725 39.9762 0.0833648 39.8368V29.2132C0.0813136 29.0736 0.107249 28.935 0.159642 28.8056C0.212035 28.6761 0.289825 28.5585 0.388419 28.4596C0.487012 28.3608 0.604411 28.2826 0.73369 28.2299C0.86297 28.1771 1.00151 28.1508 1.14113 28.1524H98.9421C99.0817 28.1508 99.2202 28.1771 99.3495 28.2299C99.4788 28.2826 99.5962 28.3608 99.6948 28.4596C99.7934 28.5585 99.8712 28.6761 99.9236 28.8056C99.976 28.935 100.002 29.0736 99.9998 29.2132V39.8368C99.9903 40.1201 99.8713 40.3887 99.6677 40.586C99.4641 40.7833 99.1919 40.8939 98.9084 40.8946ZM2.1989 38.776H97.8507V30.271H2.1989V38.776Z" fill="#444057"/>
<path d="M7.48462 30.2702C7.28416 30.2651 7.08888 30.2055 6.91975 30.0978C6.75062 29.9901 6.61404 29.8383 6.52468 29.6588C6.4633 29.5328 6.42742 29.3959 6.41911 29.256C6.4108 29.1161 6.43021 28.9759 6.47623 28.8436C6.52225 28.7112 6.59397 28.5892 6.68728 28.4846C6.78058 28.38 6.89363 28.2949 7.01993 28.2342L64.4116 0.600696C64.5925 0.514431 64.794 0.481004 64.9931 0.50426C65.1921 0.527517 65.3805 0.606513 65.5366 0.732153L99.5595 28.3687C99.7789 28.5442 99.9195 28.7997 99.9504 29.0789C99.9814 29.3581 99.9002 29.6382 99.7246 29.8575C99.5491 30.0768 99.2936 30.2174 99.0144 30.2484C98.7352 30.2794 98.4551 30.1981 98.2358 30.0226L64.7387 2.81407L7.95847 30.1724C7.81 30.2406 7.64795 30.274 7.48462 30.2702Z" fill="#444057"/>
<path d="M64.9191 98.2856C64.6789 98.2866 64.4453 98.2067 64.256 98.0588C64.0667 97.9109 63.9326 97.7036 63.8754 97.4703C63.8183 97.237 63.8412 96.9912 63.9407 96.7725C64.0402 96.5539 64.2104 96.375 64.4238 96.2648L83.5524 86.7021L64.488 79.0868C64.2927 79.0047 64.126 78.8667 64.0087 78.6903C63.8915 78.5138 63.8289 78.3066 63.8289 78.0947C63.8289 77.8829 63.8915 77.6757 64.0087 77.4992C64.126 77.3227 64.2927 77.1848 64.488 77.1027L83.3017 69.5913L64.5003 62.0768C64.3041 62.0029 64.1349 61.8713 64.0149 61.6995C63.8949 61.5276 63.8296 61.3235 63.8277 61.1139C63.8125 60.907 63.8616 60.7005 63.9683 60.5226C64.075 60.3447 64.2342 60.2042 64.4238 60.1203L83.7847 50.4567L64.4238 40.793C64.297 40.732 64.1837 40.6462 64.0904 40.5408C63.9972 40.4354 63.9259 40.3124 63.8808 40.1791C63.8356 40.0457 63.8176 39.9047 63.8277 39.7643C63.8377 39.6239 63.8757 39.487 63.9394 39.3615C64.0031 39.2359 64.0912 39.1244 64.1985 39.0333C64.3058 38.9423 64.4303 38.8736 64.5645 38.8312C64.6988 38.7889 64.8401 38.7738 64.9802 38.7867C65.1204 38.7997 65.2566 38.8405 65.3807 38.9068L86.6309 49.5303C86.8102 49.6185 86.9611 49.7552 87.0665 49.9249C87.1719 50.0946 87.2275 50.2905 87.227 50.4903C87.2231 50.6891 87.1656 50.8832 87.0607 51.0521C86.9558 51.221 86.8074 51.3585 86.6309 51.4502L67.4993 61.013L86.5637 68.6283C86.7601 68.7093 86.9281 68.8468 87.0463 69.0235C87.1646 69.2001 87.2277 69.4078 87.2277 69.6203C87.2277 69.8329 87.1646 70.0406 87.0463 70.2172C86.9281 70.3938 86.7601 70.5314 86.5637 70.6124L67.7653 78.0932L86.5637 85.6046C86.7574 85.6802 86.924 85.812 87.0422 85.9831C87.1604 86.1541 87.2248 86.3566 87.227 86.5645C87.2414 86.7713 87.1919 86.9774 87.0853 87.1551C86.9786 87.3328 86.8201 87.4735 86.6309 87.5581L65.3807 98.1817C65.2347 98.2448 65.0781 98.2801 64.9191 98.2856Z" fill="#444057"/>
<path d="M11.7646 40.8944C11.6253 40.8961 11.487 40.8698 11.3579 40.8172C11.2288 40.7647 11.1116 40.6868 11.013 40.5883C10.9145 40.4897 10.8366 40.3724 10.784 40.2434C10.7315 40.1143 10.7052 39.976 10.7069 39.8366V35.5994C10.7099 35.3899 10.7667 35.1846 10.8719 35.0033L15.1061 28.6169C15.1842 28.4995 15.2846 28.3986 15.4017 28.32C15.5188 28.2414 15.6502 28.1866 15.7884 28.1588C15.9267 28.131 16.0691 28.1307 16.2074 28.1579C16.3458 28.1851 16.4775 28.2393 16.5949 28.3173C16.7123 28.3954 16.8132 28.4959 16.8919 28.613C16.9705 28.73 17.0252 28.8615 17.0531 28.9997C17.0809 29.138 17.0812 29.2803 17.054 29.4187C17.0268 29.5571 16.9726 29.6887 16.8945 29.8062L12.8255 35.9205V39.8611C12.8247 39.9989 12.7965 40.1352 12.7426 40.262C12.6886 40.3888 12.61 40.5036 12.5113 40.5998C12.4126 40.6959 12.2957 40.7715 12.1676 40.8221C12.0394 40.8727 11.9024 40.8973 11.7646 40.8944Z" fill="#444057"/>
<path d="M20.2695 40.8945C20.1302 40.8961 19.9919 40.8699 19.8628 40.8173C19.7337 40.7647 19.6165 40.6869 19.5179 40.5883C19.4194 40.4898 19.3415 40.3725 19.2889 40.2435C19.2363 40.1144 19.2101 39.9761 19.2117 39.8367V35.5995C19.2161 35.3902 19.2729 35.1852 19.3768 35.0034L23.614 28.617C23.6901 28.4952 23.7898 28.39 23.9072 28.3074C24.0247 28.2249 24.1575 28.1667 24.2979 28.1364C24.4382 28.1062 24.5832 28.1044 24.7243 28.1311C24.8653 28.1579 24.9996 28.2127 25.1191 28.2923C25.2386 28.3719 25.3409 28.4746 25.4199 28.5945C25.499 28.7143 25.5532 28.8488 25.5793 28.99C25.6055 29.1312 25.603 29.2762 25.5721 29.4164C25.5412 29.5566 25.4825 29.6892 25.3994 29.8063L21.3303 35.9205V39.8612C21.3296 39.999 21.3014 40.1353 21.2475 40.2621C21.1935 40.3889 21.1149 40.5037 21.0162 40.5999C20.9175 40.696 20.8006 40.7716 20.6724 40.8222C20.5443 40.8728 20.4073 40.8973 20.2695 40.8945Z" fill="#444057"/>
<path d="M28.7774 40.8944C28.6379 40.896 28.4995 40.8698 28.3702 40.8173C28.241 40.7647 28.1235 40.6869 28.0248 40.5884C27.926 40.4899 27.8478 40.3727 27.7949 40.2436C27.742 40.1145 27.7154 39.9762 27.7166 39.8366V35.5994C27.7206 35.3896 27.7785 35.1843 27.8847 35.0033L32.1189 28.6169C32.197 28.4995 32.2974 28.3986 32.4145 28.32C32.5316 28.2414 32.663 28.1866 32.8012 28.1588C32.9395 28.131 33.0819 28.1307 33.2202 28.1579C33.3586 28.1851 33.4903 28.2393 33.6077 28.3173C33.7251 28.3954 33.826 28.4959 33.9046 28.613C33.9833 28.73 34.038 28.8615 34.0658 28.9997C34.0937 29.138 34.094 29.2803 34.0668 29.4187C34.0396 29.5571 33.9854 29.6887 33.9073 29.8062L29.8352 35.896V39.8366C29.8328 40.1164 29.7206 40.3841 29.5227 40.582C29.3249 40.7798 29.0572 40.892 28.7774 40.8944Z" fill="#444057"/>
<path d="M37.2826 40.8945C37.143 40.8966 37.0043 40.8706 36.8749 40.8182C36.7455 40.7658 36.6279 40.688 36.529 40.5895C36.4301 40.4909 36.352 40.3735 36.2992 40.2442C36.2464 40.1149 36.2201 39.9764 36.2218 39.8367V35.5995C36.2248 35.39 36.2816 35.1847 36.3868 35.0034L40.624 28.617C40.7001 28.4952 40.7998 28.39 40.9173 28.3074C41.0347 28.2249 41.1676 28.1667 41.3079 28.1364C41.4482 28.1062 41.5932 28.1044 41.7343 28.1311C41.8754 28.1579 42.0096 28.2127 42.1291 28.2923C42.2486 28.3719 42.3509 28.4746 42.43 28.5945C42.509 28.7143 42.5632 28.8488 42.5894 28.99C42.6155 29.1312 42.613 29.2762 42.5821 29.4164C42.5512 29.5566 42.4925 29.6892 42.4094 29.8063L38.3373 35.9205V39.8612C38.3301 40.1367 38.2161 40.3986 38.0192 40.5915C37.8224 40.7843 37.5582 40.893 37.2826 40.8945Z" fill="#444057"/>
<path d="M45.7876 40.8945C45.6482 40.8961 45.5099 40.8699 45.3809 40.8173C45.2518 40.7647 45.1345 40.6869 45.036 40.5883C44.9374 40.4898 44.8596 40.3725 44.807 40.2435C44.7544 40.1144 44.7282 39.9761 44.7298 39.8367V35.5995C44.7342 35.3902 44.7909 35.1852 44.8949 35.0034L49.1321 28.617C49.2081 28.4952 49.3078 28.39 49.4253 28.3074C49.5428 28.2249 49.6756 28.1667 49.816 28.1364C49.9563 28.1062 50.1013 28.1044 50.2424 28.1311C50.3834 28.1579 50.5177 28.2127 50.6372 28.2923C50.7566 28.3719 50.859 28.4746 50.938 28.5945C51.0171 28.7143 51.0713 28.8488 51.0974 28.99C51.1236 29.1312 51.1211 29.2762 51.0902 29.4164C51.0593 29.5566 51.0005 29.6892 50.9175 29.8063L46.8484 35.9205V39.8612C46.8412 40.1377 46.7263 40.4006 46.5281 40.5936C46.33 40.7866 46.0642 40.8946 45.7876 40.8945Z" fill="#444057"/>
<path d="M54.2589 40.8945C54.1194 40.8961 53.9809 40.8699 53.8517 40.8174C53.7225 40.7648 53.605 40.687 53.5062 40.5885C53.4074 40.49 53.3293 40.3728 53.2763 40.2437C53.2234 40.1146 53.1968 39.9762 53.198 39.8367V35.5995C53.202 35.3897 53.2599 35.1844 53.3662 35.0034L57.6217 28.617C57.6978 28.4952 57.7975 28.39 57.9149 28.3074C58.0324 28.2249 58.1652 28.1667 58.3056 28.1364C58.4459 28.1062 58.5909 28.1044 58.732 28.1311C58.873 28.1579 59.0073 28.2127 59.1268 28.2923C59.2463 28.3719 59.3486 28.4746 59.4276 28.5945C59.5067 28.7143 59.5609 28.8488 59.587 28.99C59.6132 29.1312 59.6107 29.2762 59.5798 29.4164C59.5489 29.5566 59.4902 29.6892 59.4071 29.8063L55.335 35.9205V39.8612C55.3373 40.0012 55.3107 40.1402 55.2569 40.2694C55.2031 40.3987 55.1232 40.5155 55.0222 40.6125C54.9212 40.7094 54.8013 40.7845 54.6699 40.8331C54.5386 40.8816 54.3987 40.9025 54.2589 40.8945Z" fill="#444057"/>
<path d="M62.7671 40.8945C62.6277 40.8961 62.4894 40.8699 62.3604 40.8173C62.2313 40.7647 62.114 40.6869 62.0155 40.5883C61.9169 40.4898 61.8391 40.3725 61.7865 40.2435C61.7339 40.1144 61.7077 39.9761 61.7093 39.8367V35.5995C61.7123 35.39 61.7692 35.1847 61.8744 35.0034L66.1116 28.617C66.1876 28.4952 66.2873 28.39 66.4048 28.3074C66.5223 28.2249 66.6551 28.1667 66.7955 28.1364C66.9358 28.1062 67.0808 28.1044 67.2219 28.1311C67.3629 28.1579 67.4972 28.2127 67.6166 28.2923C67.7361 28.3719 67.8384 28.4746 67.9175 28.5945C67.9966 28.7143 68.0508 28.8488 68.0769 28.99C68.103 29.1312 68.1006 29.2762 68.0697 29.4164C68.0388 29.5566 67.98 29.6892 67.8969 29.8063L63.8279 35.9205V39.8612C63.8271 39.999 63.7989 40.1353 63.745 40.2621C63.6911 40.3889 63.6125 40.5037 63.5138 40.5999C63.415 40.696 63.2982 40.7716 63.17 40.8222C63.0418 40.8728 62.9048 40.8973 62.7671 40.8945Z" fill="#444057"/>
<path d="M71.2717 40.8945C71.1323 40.8961 70.9941 40.8699 70.865 40.8173C70.7359 40.7647 70.6187 40.6869 70.5201 40.5883C70.4215 40.4898 70.3437 40.3725 70.2911 40.2435C70.2385 40.1144 70.2123 39.9761 70.2139 39.8367V35.5995C70.217 35.39 70.2738 35.1847 70.379 35.0034L74.6162 28.617C74.6923 28.4952 74.792 28.39 74.9094 28.3074C75.0269 28.2249 75.1597 28.1667 75.3001 28.1364C75.4404 28.1062 75.5854 28.1044 75.7265 28.1311C75.8675 28.1579 76.0018 28.2127 76.1213 28.2923C76.2408 28.3719 76.3431 28.4746 76.4221 28.5945C76.5012 28.7143 76.5554 28.8488 76.5815 28.99C76.6077 29.1312 76.6052 29.2762 76.5743 29.4164C76.5434 29.5566 76.4847 29.6892 76.4016 29.8063L72.3325 35.9205V39.8612C72.3318 39.999 72.3036 40.1353 72.2497 40.2621C72.1957 40.3889 72.1171 40.5037 72.0184 40.5999C71.9197 40.696 71.8028 40.7716 71.6746 40.8222C71.5464 40.8728 71.4095 40.8973 71.2717 40.8945Z" fill="#444057"/>
<path d="M79.78 40.8944C79.6402 40.8965 79.5015 40.8705 79.3719 40.8182C79.2423 40.7658 79.1244 40.6881 79.0253 40.5895C78.9262 40.491 78.8478 40.3736 78.7947 40.2443C78.7416 40.115 78.7149 39.9764 78.7161 39.8366V35.5995C78.7201 35.3896 78.778 35.1843 78.8842 35.0033L83.1184 28.6169C83.2761 28.3798 83.5215 28.215 83.8008 28.1588C84.08 28.1026 84.37 28.1596 84.6072 28.3174C84.8444 28.4751 85.0092 28.7205 85.0654 28.9997C85.1215 29.2789 85.0645 29.569 84.9068 29.8062L80.8347 35.9205V39.8611C80.8343 39.9985 80.8066 40.1345 80.7532 40.2611C80.6998 40.3876 80.6218 40.5024 80.5236 40.5985C80.4255 40.6947 80.3092 40.7703 80.1815 40.8211C80.0539 40.8719 79.9174 40.8969 79.78 40.8944Z" fill="#444057"/>
<path d="M88.2849 40.8945C88.1455 40.8961 88.0072 40.8699 87.8782 40.8173C87.7491 40.7647 87.6318 40.6869 87.5333 40.5883C87.4347 40.4898 87.3569 40.3725 87.3043 40.2435C87.2517 40.1144 87.2255 39.9761 87.2271 39.8367V35.5995C87.2315 35.3902 87.2882 35.1852 87.3922 35.0034L91.6294 28.617C91.7054 28.4952 91.8052 28.39 91.9226 28.3074C92.0401 28.2249 92.1729 28.1667 92.3133 28.1364C92.4536 28.1062 92.5986 28.1044 92.7397 28.1311C92.8807 28.1579 93.015 28.2127 93.1345 28.2923C93.254 28.3719 93.3563 28.4746 93.4353 28.5945C93.5144 28.7143 93.5686 28.8488 93.5947 28.99C93.6209 29.1312 93.6184 29.2762 93.5875 29.4164C93.5566 29.5566 93.4978 29.6892 93.4148 29.8063L89.3427 35.9205V39.8612C89.3423 39.9989 89.3145 40.1351 89.2609 40.2619C89.2073 40.3887 89.129 40.5035 89.0305 40.5997C88.932 40.6959 88.8154 40.7715 88.6874 40.8221C88.5593 40.8727 88.4225 40.8973 88.2849 40.8945Z" fill="#444057"/>
<path d="M96.7896 100.435H1.14086C0.869761 100.421 0.614563 100.303 0.42781 100.105C0.241057 99.9084 0.136963 99.6473 0.136963 99.3758C0.136963 99.1043 0.241057 98.8431 0.42781 98.6461C0.614563 98.449 0.869761 98.331 1.14086 98.3165H96.7896C96.9293 98.3148 97.068 98.3412 97.1975 98.3939C97.3269 98.4466 97.4445 98.5247 97.5433 98.6235C97.6422 98.7224 97.7203 98.84 97.773 98.9694C97.8257 99.0989 97.852 99.2375 97.8504 99.3773C97.848 99.6576 97.7354 99.9257 97.5368 100.124C97.3383 100.322 97.0699 100.433 96.7896 100.435Z" fill="#444057"/>
<path d="M92.5556 100.435C92.4158 100.437 92.277 100.411 92.1474 100.359C92.0178 100.307 91.9 100.229 91.801 100.13C91.7021 100.032 91.624 99.9142 91.5713 99.7847C91.5187 99.6552 91.4927 99.5165 91.4947 99.3767V58.998C91.5093 58.7269 91.6273 58.4717 91.8243 58.285C92.0214 58.0982 92.2826 57.9941 92.5541 57.9941C92.8255 57.9941 93.0867 58.0982 93.2838 58.285C93.4808 58.4717 93.5988 58.7269 93.6133 58.998V99.3767C93.6056 99.6548 93.4917 99.9194 93.295 100.116C93.0983 100.313 92.8337 100.427 92.5556 100.435Z" fill="#444057"/>
<path d="M45.7875 100.368H32.9475C32.8079 100.37 32.6693 100.344 32.5399 100.291C32.4104 100.239 32.2928 100.161 32.1939 100.063C32.0951 99.9641 32.0169 99.8467 31.9642 99.7174C31.9114 99.5881 31.8851 99.4496 31.8867 99.31V89.0502H24.0451V99.31C24.0468 99.4496 24.0205 99.5881 23.9677 99.7174C23.9149 99.8467 23.8368 99.9641 23.7379 100.063C23.639 100.161 23.5214 100.239 23.392 100.291C23.2626 100.344 23.1239 100.37 22.9843 100.368H9.64602C9.50654 100.37 9.36807 100.344 9.2388 100.291C9.10953 100.239 8.99211 100.161 8.89347 100.063C8.79484 99.9639 8.717 99.8465 8.66457 99.7172C8.61214 99.5879 8.58619 99.4495 8.58825 99.31V75.9779C8.5862 75.8383 8.61213 75.6997 8.66453 75.5702C8.71692 75.4408 8.79471 75.3232 8.8933 75.2243C8.99189 75.1254 9.1093 75.0473 9.23858 74.9945C9.36786 74.9418 9.5064 74.9154 9.64602 74.9171H45.7875C45.9273 74.9154 46.066 74.9417 46.1954 74.9945C46.3249 75.0472 46.4425 75.1253 46.5413 75.2241C46.6401 75.323 46.7182 75.4406 46.7709 75.57C46.8237 75.6994 46.85 75.8381 46.8484 75.9779V99.31C46.8467 99.5906 46.7344 99.8591 46.5357 100.057C46.337 100.255 46.0681 100.367 45.7875 100.368ZM34.0053 98.2522H44.7297V77.0357H10.7068V98.2522H21.8929V87.9925C21.8913 87.853 21.9175 87.7145 21.97 87.5853C22.0226 87.456 22.1004 87.3386 22.1989 87.2398C22.2974 87.141 22.4146 87.0628 22.5437 87.0099C22.6728 86.957 22.8112 86.9304 22.9507 86.9316H32.9475C33.0872 86.93 33.2257 86.9563 33.355 87.0091C33.4843 87.0618 33.6017 87.14 33.7003 87.2389C33.7988 87.3377 33.8766 87.4554 33.929 87.5848C33.9814 87.7142 34.0074 87.8528 34.0053 87.9925V98.2522Z" fill="#7B2CBF"/>
<path d="M27.7839 51.8816C27.6444 51.8837 27.506 51.8577 27.3767 51.8053C27.2474 51.7529 27.13 51.675 27.0314 51.5764C26.9327 51.4778 26.8549 51.3603 26.8025 51.2311C26.75 51.1018 26.7241 50.9633 26.7261 50.8239V39.8365C26.7184 39.6926 26.7401 39.5486 26.7898 39.4134C26.8396 39.2782 26.9163 39.1545 27.0155 39.0499C27.1146 38.9453 27.234 38.862 27.3664 38.805C27.4987 38.7481 27.6413 38.7188 27.7854 38.7188C27.9295 38.7188 28.0721 38.7481 28.2045 38.805C28.3369 38.862 28.4563 38.9453 28.5554 39.0499C28.6545 39.1545 28.7313 39.2782 28.7811 39.4134C28.8308 39.5486 28.8525 39.6926 28.8447 39.8365V50.8239C28.8464 50.9635 28.82 51.102 28.7673 51.2313C28.7145 51.3606 28.6364 51.478 28.5375 51.5766C28.4386 51.6752 28.321 51.753 28.1916 51.8054C28.0621 51.8578 27.9235 51.8837 27.7839 51.8816Z" fill="#444057"/>
<path d="M52.1432 66.4124H3.25954C3.02576 66.4074 2.79977 66.3275 2.61484 66.1844C2.42991 66.0413 2.29582 65.8426 2.23234 65.6175C2.16694 65.3918 2.18069 65.1504 2.27133 64.9335C2.36197 64.7167 2.52405 64.5373 2.73066 64.4252L27.255 49.8977C27.4203 49.8001 27.6088 49.7486 27.8007 49.7486C27.9927 49.7486 28.1811 49.8001 28.3464 49.8977L36.2216 54.5965V50.4602C36.2196 50.3207 36.2455 50.1823 36.2979 50.053C36.3504 49.9237 36.4282 49.8063 36.5268 49.7077C36.6255 49.609 36.7429 49.5312 36.8722 49.4788C37.0014 49.4263 37.1399 49.4004 37.2794 49.4025H43.6658C43.8054 49.4004 43.944 49.4263 44.0734 49.4787C44.2028 49.5311 44.3205 49.6089 44.4194 49.7075C44.5182 49.8061 44.5964 49.9235 44.6491 50.0528C44.7019 50.1821 44.7282 50.3206 44.7266 50.4602V59.6592L52.7027 64.4252C52.9065 64.5447 53.0648 64.7284 53.153 64.9476C53.2411 65.1668 53.254 65.409 53.1897 65.6363C53.1253 65.8636 52.9874 66.0631 52.7974 66.2036C52.6075 66.344 52.3763 66.4175 52.1401 66.4124H52.1432ZM7.12988 64.2938H48.2698L43.0727 61.2152C42.9117 61.1223 42.7781 60.9886 42.6852 60.8276C42.5924 60.6666 42.5436 60.484 42.5438 60.2981V51.5516H38.3096V56.4828C38.3098 56.6687 38.2611 56.8513 38.1682 57.0123C38.0754 57.1733 37.9417 57.307 37.7808 57.3999C37.621 57.4974 37.4375 57.549 37.2504 57.549C37.0632 57.549 36.8797 57.4974 36.7199 57.3999L27.7839 52.0805L7.12988 64.2938Z" fill="#7B2CBF"/>
<path d="M19.2118 13.2579H8.58819C7.46516 13.2555 6.38882 12.8083 5.59472 12.0142C4.80062 11.2201 4.35342 10.1437 4.351 9.02072C3.78519 9.03592 3.22207 8.9376 2.69488 8.73158C2.16769 8.52555 1.68713 8.21599 1.28156 7.82117C0.875983 7.42634 0.553625 6.95426 0.333514 6.4328C0.113403 5.91134 0 5.35106 0 4.78505C0 4.21903 0.113403 3.65875 0.333514 3.13729C0.553625 2.61583 0.875983 2.14375 1.28156 1.74893C1.68713 1.35411 2.16769 1.04454 2.69488 0.838518C3.22207 0.632491 3.78519 0.534178 4.351 0.54938H14.9409C16.064 0.551803 17.1403 0.998998 17.9344 1.7931C18.7285 2.58721 19.1757 3.66355 19.1781 4.78658C20.3009 4.78819 21.3772 5.23471 22.1714 6.02832C22.9656 6.82194 23.4129 7.89797 23.4153 9.02072C23.421 9.57589 23.3164 10.1267 23.1075 10.6411C22.8987 11.1556 22.5898 11.6234 22.1988 12.0176C21.8078 12.4117 21.3424 12.7243 20.8296 12.9372C20.3169 13.1502 19.767 13.2592 19.2118 13.2579ZM4.31737 2.63435C3.75548 2.63435 3.21661 2.85756 2.8193 3.25487C2.42198 3.65219 2.19877 4.19106 2.19877 4.75295C2.19877 5.31483 2.42198 5.85371 2.8193 6.25102C3.21661 6.64834 3.75548 6.87155 4.31737 6.87155H5.57691C5.74726 6.87243 5.91477 6.91529 6.06461 6.99635C6.21445 7.0774 6.342 7.19413 6.43597 7.33623C6.53772 7.47184 6.6032 7.63118 6.6262 7.79915C6.6492 7.96713 6.62897 8.13819 6.56742 8.29617C6.49252 8.52051 6.4483 8.75395 6.43597 8.99014C6.44154 9.5503 6.66654 10.0859 7.06265 10.4821C7.45876 10.8782 7.99441 11.1032 8.55456 11.1087H19.1781C19.74 11.1087 20.2789 10.8855 20.6762 10.4882C21.0735 10.0909 21.2967 9.55203 21.2967 8.99014C21.2967 8.42826 21.0735 7.88938 20.6762 7.49207C20.2789 7.09475 19.74 6.87155 19.1781 6.87155H17.9216C17.7509 6.87063 17.5829 6.82777 17.4326 6.74674C17.2823 6.66572 17.1542 6.549 17.0595 6.40686C16.9586 6.27087 16.8936 6.11157 16.8706 5.94376C16.8476 5.77595 16.8674 5.60505 16.9281 5.44692C17.0041 5.22289 17.0484 4.98928 17.0595 4.75295C17.054 4.19279 16.829 3.65715 16.4328 3.26103C16.0367 2.86492 15.5011 2.63992 14.9409 2.63435H4.31737Z" fill="#444057"/>
<path d="M93.6134 13.2576C92.7754 13.2576 91.9562 13.0091 91.2594 12.5435C90.5626 12.0779 90.0195 11.4162 89.6988 10.6419C89.3781 9.86766 89.2941 9.0157 89.4576 8.19376C89.6211 7.37183 90.0247 6.61683 90.6173 6.02425C91.2099 5.43167 91.9649 5.02811 92.7868 4.86462C93.6087 4.70113 94.4607 4.78504 95.2349 5.10574C96.0092 5.42645 96.6709 5.96954 97.1365 6.66634C97.6021 7.36314 97.8506 8.18236 97.8506 9.0204C97.8482 10.1434 97.401 11.2198 96.6069 12.0139C95.8128 12.808 94.7365 13.2552 93.6134 13.2576ZM93.6134 6.87123C93.1944 6.87123 92.7848 6.99548 92.4364 7.22828C92.088 7.46107 91.8164 7.79195 91.6561 8.17908C91.4957 8.5662 91.4538 8.99218 91.5355 9.40315C91.6173 9.81411 91.819 10.1916 92.1153 10.4879C92.4116 10.7842 92.7891 10.986 93.2001 11.0677C93.6111 11.1495 94.037 11.1075 94.4242 10.9472C94.8113 10.7868 95.1422 10.5153 95.375 10.1669C95.6078 9.81846 95.732 9.40885 95.732 8.98983C95.7264 8.42967 95.5014 7.89403 95.1053 7.49792C94.7092 7.1018 94.1736 6.87681 93.6134 6.87123Z" fill="#444057"/>
</svg>
