<svg width="100" height="101" viewBox="0 0 100 101" fill="none" xmlns="http://www.w3.org/2000/svg">
<path d="M35.2233 98.6137C33.7085 98.6131 32.2513 98.0332 31.1502 96.9931L31.0829 96.9258C30.2287 96.0041 29.6928 94.8326 29.554 93.5836L28.8935 94.2441C28.1303 95.0028 27.1689 95.5313 26.1193 95.7691C25.0698 96.0068 23.9744 95.9442 22.9588 95.5885C21.9431 95.2327 21.0482 94.5981 20.3764 93.7573C19.7047 92.9166 19.2832 91.9037 19.1603 90.8345L17.8026 92.1586C16.7255 93.2189 15.2747 93.8133 13.7632 93.8133C12.2517 93.8133 10.8009 93.2189 9.72378 92.1586C8.6599 91.0838 8.06508 89.6314 8.06948 88.1192C8.06412 87.3699 8.20759 86.627 8.49156 85.9336C8.77554 85.2402 9.19438 84.61 9.72378 84.0797L20.0869 73.8848C20.2876 73.6936 20.5542 73.5869 20.8314 73.5869C21.1087 73.5869 21.3753 73.6936 21.576 73.8848L33.4283 85.7371L38.1955 90.6694C38.9346 91.3265 39.8883 91.6908 40.8772 91.6938C41.2721 91.6947 41.6642 91.6275 42.0362 91.495C42.2641 91.4107 42.5142 91.4077 42.7441 91.4864C42.974 91.5652 43.1697 91.7209 43.298 91.9273C43.4264 92.1337 43.4796 92.378 43.4485 92.6191C43.4175 92.8601 43.3042 93.0831 43.1278 93.2502L39.2382 96.9931C38.1549 98.0245 36.7191 98.6041 35.2233 98.6137ZM32.6057 95.4672C33.3193 96.1246 34.253 96.4911 35.2233 96.4946C35.6839 96.4953 36.1402 96.4048 36.5658 96.2285C36.9914 96.0522 37.3779 95.7934 37.7032 95.4672L39.5929 93.6814C38.5249 93.4482 37.5337 92.9473 36.7124 92.2259L36.6452 92.1586L31.8443 87.2263L20.7565 76.1354L11.1549 85.6148C10.4944 86.2989 10.1253 87.2126 10.1253 88.1635C10.1253 89.1144 10.4944 90.0281 11.1549 90.7122C11.8391 91.3736 12.7535 91.7433 13.7051 91.7433C14.6567 91.7433 15.5711 91.3736 16.2554 90.7122L20.7565 86.3426C20.8564 86.2468 20.9742 86.1717 21.1032 86.1216C21.2322 86.0715 21.3698 86.0473 21.5081 86.0504C21.6464 86.0535 21.7828 86.0839 21.9094 86.1398C22.0359 86.1957 22.1502 86.276 22.2457 86.3762C22.4372 86.5774 22.5439 86.8445 22.5439 87.1223C22.5439 87.4001 22.4372 87.6672 22.2457 87.8684C21.9154 88.1883 21.6527 88.5713 21.4734 88.9947C21.294 89.4181 21.2016 89.8732 21.2016 90.3331C21.2016 90.7929 21.294 91.248 21.4734 91.6714C21.6527 92.0948 21.9154 92.4778 22.2457 92.7977C22.9298 93.4582 23.8435 93.8273 24.7944 93.8273C25.7453 93.8273 26.6591 93.4582 27.3432 92.7977L31.0829 89.0579C31.1789 88.9565 31.2946 88.8757 31.4229 88.8205C31.5512 88.7653 31.6894 88.7368 31.829 88.7368C31.9687 88.7368 32.1069 88.7653 32.2352 88.8205C32.3635 88.8757 32.4791 88.9565 32.5752 89.0579C32.6731 89.1556 32.7507 89.2717 32.8037 89.3995C32.8567 89.5272 32.884 89.6642 32.884 89.8025C32.884 89.9408 32.8567 90.0778 32.8037 90.2056C32.7507 90.3333 32.6731 90.4494 32.5752 90.5471C31.2878 91.8283 31.2878 93.978 32.6057 95.4672Z" fill="#444057"/>
<path d="M46.7082 100.433C45.9588 100.439 45.2157 100.296 44.5222 100.012C43.8287 99.7282 43.1987 99.309 42.6688 98.779C41.7802 97.8713 41.2103 96.6995 41.0448 95.44C40.8794 94.1805 41.1274 92.9013 41.7514 91.7949C41.8138 91.6808 41.8989 91.5806 42.0014 91.5007C42.104 91.4207 42.2218 91.3627 42.3477 91.3301C42.6903 91.1794 43.0015 90.9657 43.2651 90.7002C43.934 90.0133 44.3165 89.0978 44.3353 88.1393C44.354 87.1807 44.0075 86.251 43.366 85.5385C43.177 85.3321 43.0778 85.0591 43.0901 84.7795C43.1025 84.5 43.2253 84.2368 43.4317 84.0478C43.6381 83.8588 43.9111 83.7596 44.1907 83.7719C44.4703 83.7843 44.7335 83.9071 44.9224 84.1135L49.7233 88.9144C50.381 89.5722 51.273 89.9417 52.2032 89.9418C53.1732 89.9327 54.1072 89.5732 54.833 88.9297C56.157 87.4711 56.157 85.2878 54.833 83.9973C54.6482 83.7973 54.5479 83.5335 54.5531 83.2612C54.5584 82.9888 54.6688 82.7291 54.8612 82.5363C55.0536 82.3435 55.3131 82.2326 55.5854 82.2268C55.8577 82.221 56.1217 82.3207 56.3221 82.5051L60.0619 86.2479C60.2537 86.4549 60.4646 86.6433 60.6918 86.8106C60.8401 86.8827 60.9687 86.9896 61.0667 87.1221C61.1647 87.2547 61.2291 87.4091 61.2545 87.572C61.2771 87.7381 61.2614 87.9072 61.2083 88.0662C61.1553 88.2253 61.0665 88.3701 60.9487 88.4893L50.7538 98.8188C49.6657 99.8612 48.2151 100.44 46.7082 100.433ZM43.3996 93.1526C43.0942 93.8307 43.0005 94.5851 43.1309 95.3173C43.2613 96.0495 43.6097 96.7253 44.1305 97.2562C44.8145 97.9167 45.7283 98.2858 46.6792 98.2858C47.6301 98.2858 48.5438 97.9167 49.2279 97.2562L55.2549 91.165C54.3268 91.7288 53.2617 92.0271 52.1757 92.0273C50.6755 92.0178 49.2383 91.4231 48.1699 90.3699L46.381 88.5841C46.2783 89.9361 45.6909 91.2055 44.7267 92.1588C44.3447 92.5638 43.8958 92.8999 43.3996 93.1526ZM57.8664 86.994C57.7636 87.7977 57.505 88.5737 57.1049 89.2783L58.6339 87.7218L58.5666 87.6576L57.8664 86.994Z" fill="#444057"/>
<path d="M40.6846 93.8215C39.9353 93.827 39.1923 93.6836 38.4989 93.3996C37.8054 93.1156 37.1753 92.6967 36.6451 92.1672L31.8443 87.2012L15.5245 70.8875C15.3936 70.761 15.3013 70.5998 15.2585 70.4227L13.5063 64.2306C13.4568 64.0517 13.455 63.863 13.5011 63.6833C13.5472 63.5035 13.6397 63.339 13.7693 63.2062L28.5663 48.2288C28.7752 48.0331 29.0452 47.9154 29.3307 47.8955C29.4718 47.8921 29.612 47.9175 29.7429 47.9701C29.8738 48.0227 29.9926 48.1013 30.0921 48.2013C30.3228 48.4146 30.5914 48.5826 30.8841 48.6967C30.9514 48.7303 31.0156 48.7303 31.0523 48.7639C32.1746 49.3938 33.5322 49.6813 35.1896 49.6813C38.1007 49.6813 41.446 48.7639 44.6904 47.8466C45.3845 47.6478 46.0817 47.4827 46.7422 47.2839C46.9218 47.2348 47.1111 47.2335 47.2913 47.2802C47.4716 47.3268 47.6365 47.4198 47.7696 47.55L73.9877 73.768L77.7275 77.3457C78.7789 78.4336 79.3667 79.8875 79.3667 81.4004C79.3667 82.9134 78.7789 84.3673 77.7275 85.4552C76.6509 86.5153 75.2005 87.1096 73.6896 87.1096C72.1786 87.1096 70.7282 86.5153 69.6516 85.4552L68.2878 84.1464C68.159 85.437 67.5849 86.6425 66.6641 87.5559C65.5875 88.6161 64.1372 89.2103 62.6262 89.2103C61.1153 89.2103 59.6649 88.6161 58.5883 87.5559L57.9248 86.8954C57.7737 88.141 57.2395 89.3089 56.3958 90.2377L56.3316 90.3049C55.2301 91.3446 53.7732 91.9243 52.2586 91.9256C50.7587 91.9172 49.3214 91.3237 48.2528 90.2713L46.467 88.4824C46.3333 89.9337 45.6644 91.2833 44.5905 92.2685C43.5165 93.2537 42.1144 93.804 40.657 93.8123L40.6846 93.8215ZM17.2216 69.5818L33.3793 85.7365L38.1771 90.6994C38.8612 91.3599 39.775 91.729 40.7259 91.729C41.6767 91.729 42.5905 91.3599 43.2746 90.6994C43.9434 90.0126 44.326 89.097 44.3448 88.1385C44.3635 87.18 44.017 86.2502 43.3755 85.5377C43.1977 85.3299 43.1086 85.0606 43.1275 84.7878C43.1463 84.5149 43.2717 84.2605 43.4764 84.0791C43.6785 83.9001 43.9408 83.8041 44.2108 83.8103C44.4807 83.8165 44.7383 83.9246 44.9319 84.1128L49.7328 88.9136C50.3905 89.5714 51.2825 89.941 52.2127 89.941C53.1795 89.9297 54.1098 89.5704 54.8333 88.9289C55.4703 88.2659 55.8261 87.3822 55.8261 86.4627C55.8261 85.5433 55.4703 84.6595 54.8333 83.9966C54.6485 83.7965 54.5482 83.5327 54.5535 83.2604C54.5587 82.9881 54.6691 82.7283 54.8615 82.5355C55.0539 82.3428 55.3134 82.2318 55.5857 82.226C55.858 82.2202 56.122 82.3199 56.3224 82.5043L60.0622 86.2472C60.7464 86.9085 61.6608 87.2782 62.6125 87.2782C63.5641 87.2782 64.4785 86.9085 65.1627 86.2472C65.8193 85.5876 66.1876 84.6948 66.1871 83.7642C66.1817 82.8347 65.8142 81.944 65.1627 81.2812C64.96 81.0837 64.844 80.8138 64.8402 80.5308C64.8365 80.2478 64.9454 79.9749 65.1428 79.7721C65.3403 79.5694 65.6102 79.4534 65.8932 79.4497C66.1763 79.4459 66.4491 79.5548 66.6519 79.7523L71.1531 84.0883C71.4857 84.4266 71.8827 84.6948 72.3208 84.877C72.7588 85.0593 73.2289 85.1519 73.7033 85.1494C74.6548 85.1571 75.5706 84.7877 76.2505 84.1219C76.9189 83.442 77.2934 82.5267 77.2934 81.5732C77.2934 80.6198 76.9189 79.7044 76.2505 79.0245L72.5107 75.3826L46.6902 49.5957L45.2652 49.9901C41.9016 50.9075 38.3789 51.8768 35.2018 51.8768C33.2142 51.8768 31.5324 51.516 30.1044 50.7515C29.8701 50.6701 29.6471 50.5591 29.4408 50.4213L15.7233 64.252L17.2216 69.5818Z" fill="#444057"/>
<path d="M13.9373 55.0139C13.5701 55.0139 13.2143 54.8866 12.9305 54.6536C12.6467 54.4207 12.4524 54.0965 12.3808 53.7364C12.3092 53.3763 12.3647 53.0025 12.5378 52.6787C12.7109 52.3549 12.9909 52.1011 13.3301 51.9606C13.6693 51.8201 14.0468 51.8016 14.3981 51.9082C14.7495 52.0148 15.053 52.2399 15.257 52.5452C15.4609 52.8505 15.5528 53.2171 15.5168 53.5825C15.4808 53.9479 15.3192 54.2895 15.0595 54.5491C14.9125 54.6969 14.7376 54.814 14.5449 54.8938C14.3523 54.9736 14.1458 55.0144 13.9373 55.0139ZM13.9373 52.8948C13.7995 52.9034 13.6696 52.9618 13.5717 53.0591C13.4738 53.1565 13.4146 53.2861 13.4052 53.4238C13.4106 53.562 13.4699 53.6927 13.5704 53.7877C13.6739 53.8838 13.8098 53.9372 13.9511 53.9372C14.0923 53.9372 14.2283 53.8838 14.3318 53.7877C14.3821 53.741 14.4226 53.6848 14.4509 53.6224C14.4793 53.5599 14.4949 53.4924 14.4969 53.4238C14.4915 53.2856 14.4323 53.155 14.3318 53.0599C14.2814 53.0062 14.2202 52.9637 14.1522 52.9352C14.0842 52.9067 14.011 52.893 13.9373 52.8948Z" fill="#444057"/>
<path d="M73.2265 75.67C72.9439 75.6641 72.6732 75.5553 72.4651 75.3642L46.6781 49.5773C46.2133 49.7088 45.718 49.8403 45.2195 49.9718C41.8559 50.8891 38.3332 51.8585 35.1561 51.8585C33.1043 51.8585 31.4164 51.4609 29.9914 50.669C27.6735 49.4458 26.5146 47.4582 26.9335 45.5379C27.6613 42.2598 32.3979 40.1744 39.8775 39.8441C41.5654 39.8105 42.8252 38.8167 44.3144 37.7036C46.1033 36.3123 48.1551 34.7559 51.2649 34.7559C53.0201 34.7559 54.9068 35.2543 57.0259 36.2848L58.4815 35.4928C58.6845 35.3844 58.9174 35.3451 59.1447 35.381C59.3721 35.4169 59.5815 35.5259 59.7413 35.6916L83.7424 59.6896C83.872 59.8231 83.9645 59.9882 84.0106 60.1684C84.0567 60.3486 84.0549 60.5377 84.0054 60.7171L82.3542 66.9979C82.3197 67.1962 82.2102 67.3736 82.0484 67.4933L73.9359 75.4437C73.725 75.5836 73.4794 75.662 73.2265 75.67ZM47.0084 47.342C47.2921 47.3423 47.5647 47.4518 47.7698 47.6478L73.2601 73.1381L80.3757 66.1509L81.8007 60.7232L58.8087 37.7006L57.5488 38.3611C57.3968 38.4438 57.2265 38.4871 57.0535 38.4871C56.8804 38.4871 56.7101 38.4438 56.5581 38.3611C54.5368 37.3367 52.8153 36.8321 51.2619 36.8321C48.8767 36.8321 47.2867 38.0553 45.6324 39.3488C44.0117 40.5719 42.3543 41.8654 40.0059 41.9327C32.5233 42.2629 29.4104 44.3147 29.0465 45.9721C28.8172 46.9628 29.5755 47.9872 31.0341 48.7853C32.1594 49.4122 33.5171 49.7027 35.2051 49.7027C38.1161 49.7027 41.4614 48.7853 44.7058 47.868C45.4 47.6692 46.0971 47.5041 46.7576 47.3053L47.0084 47.342Z" fill="#444057"/>
<path d="M85.2101 63.6868C84.9276 63.6809 84.6569 63.5721 84.4487 63.381L57.931 36.8296C57.8296 36.7339 57.7489 36.6185 57.6937 36.4904C57.6386 36.3624 57.6101 36.2245 57.6101 36.085C57.6101 35.9456 57.6386 35.8077 57.6937 35.6797C57.7489 35.5516 57.8296 35.4362 57.931 35.3405L69.4866 23.797C69.6936 23.6025 69.967 23.4941 70.2511 23.4941C70.5352 23.4941 70.8086 23.6025 71.0155 23.797L97.5639 50.3484C97.666 50.4437 97.7474 50.559 97.8031 50.6871C97.8588 50.8152 97.8875 50.9533 97.8875 51.093C97.8875 51.2327 97.8588 51.3709 97.8031 51.499C97.7474 51.6271 97.666 51.7423 97.5639 51.8376L86.0113 63.3902C85.7902 63.5849 85.5047 63.6905 85.2101 63.6868ZM60.1846 36.0774L85.2101 61.1029L95.2399 51.0731L70.2144 26.0476L60.1846 36.0774Z" fill="#444057"/>
<path d="M85.0787 52.4308C84.6681 52.4269 84.2758 52.261 83.987 51.9691C83.8392 51.8285 83.7217 51.6591 83.6417 51.4713C83.5618 51.2836 83.5211 51.0815 83.5222 50.8774C83.5265 50.4655 83.6936 50.0719 83.987 49.7827L84.0512 49.7185C84.3437 49.4858 84.705 49.3568 85.0787 49.3516C85.4738 49.3532 85.853 49.5077 86.1367 49.7827C86.2846 49.9239 86.4022 50.0938 86.4821 50.2821C86.562 50.4703 86.6027 50.6729 86.6015 50.8774C86.5938 51.2713 86.4402 51.6484 86.1703 51.9354C86.0377 52.0952 85.8705 52.2228 85.6814 52.3086C85.4923 52.3944 85.2863 52.4362 85.0787 52.4308ZM84.6139 50.5105C84.5664 50.5645 84.5302 50.6275 84.5077 50.6959C84.4851 50.7642 84.4765 50.8363 84.4824 50.908C84.4856 51.0666 84.544 51.219 84.6475 51.3392C84.7456 51.4511 84.8832 51.5206 85.0315 51.5332C85.1797 51.5457 85.3271 51.5003 85.4426 51.4064L84.7454 50.6114L85.5068 51.3728C85.6155 51.2556 85.6756 51.1015 85.675 50.9416C85.6694 50.783 85.6101 50.631 85.5068 50.5105C85.3904 50.4031 85.237 50.345 85.0787 50.3484C84.9938 50.3338 84.9066 50.341 84.8253 50.3693C84.744 50.3977 84.6713 50.4463 84.6139 50.5105Z" fill="#444057"/>
<path d="M13.7024 65.8057C13.5615 65.8086 13.4214 65.7829 13.2906 65.7304C13.1598 65.6779 13.0409 65.5995 12.941 65.5L1.42207 53.9107C1.31993 53.8154 1.23849 53.7001 1.18281 53.572C1.12712 53.4439 1.09839 53.3058 1.09839 53.1661C1.09839 53.0264 1.12712 52.8882 1.18281 52.7601C1.23849 52.632 1.31993 52.5168 1.42207 52.4215L27.9734 25.7417C28.0728 25.6414 28.1916 25.5626 28.3225 25.51C28.4534 25.4574 28.5938 25.4322 28.7348 25.4359C28.8759 25.4326 29.0161 25.4579 29.147 25.5105C29.2779 25.5631 29.3967 25.6417 29.4963 25.7417L41.0488 37.2943C41.2425 37.4917 41.353 37.7559 41.3576 38.0325C41.3622 38.309 41.2604 38.5767 41.0733 38.7804L39.3181 40.6335C39.2223 40.7295 39.1106 40.8082 38.9878 40.8659L38.8227 41.031L38.0919 41.8933C37.9137 42.0966 37.6663 42.2263 37.3978 42.2572C31.8936 42.8687 29.4871 44.5414 29.0896 45.9266C28.7838 46.9235 29.5513 47.7827 30.0497 48.1802C30.1632 48.2721 30.2547 48.3881 30.3177 48.5199C30.3806 48.6516 30.4134 48.7957 30.4136 48.9417C30.4197 49.2356 30.3098 49.5201 30.1078 49.7336L14.5128 65.4602C14.281 65.6595 13.9894 65.7757 13.6841 65.7905L13.7024 65.8057ZM3.67265 53.1921L13.7024 63.2249L13.7391 63.1913L27.8053 48.9906C26.9124 47.8622 26.6158 46.5718 27.0133 45.3212C27.475 43.7922 29.3617 41.1166 36.7128 40.2206L37.1745 39.6611L37.2418 39.5938L37.7035 39.129C37.7866 39.0555 37.8756 38.989 37.9696 38.9302L38.7646 38.1046L28.7012 28.0412L3.67265 53.1921Z" fill="#444057"/>
<path d="M98.8813 89.7733H83.9865C83.7059 89.7733 83.4368 89.6618 83.2383 89.4634C83.0399 89.265 82.9285 88.9958 82.9285 88.7152C82.9285 88.4346 83.0399 88.1655 83.2383 87.9671C83.4368 87.7687 83.7059 87.6572 83.9865 87.6572H98.8813C99.1619 87.6572 99.431 87.7687 99.6294 87.9671C99.8279 88.1655 99.9393 88.4346 99.9393 88.7152C99.9393 88.9958 99.8279 89.265 99.6294 89.4634C99.431 89.6618 99.1619 89.7733 98.8813 89.7733Z" fill="#444057"/>
<path d="M98.8817 96.1636H83.9869C83.843 96.1713 83.699 96.1497 83.5637 96.0999C83.4284 96.0501 83.3047 95.9733 83.2001 95.8742C83.0955 95.7751 83.0121 95.6556 82.9552 95.5232C82.8983 95.3908 82.8689 95.2482 82.8689 95.104C82.8689 94.9599 82.8983 94.8173 82.9552 94.6849C83.0121 94.5525 83.0955 94.433 83.2001 94.3339C83.3047 94.2347 83.4284 94.1579 83.5637 94.1082C83.699 94.0584 83.843 94.0368 83.9869 94.0445H98.8817C99.0257 94.0368 99.1697 94.0584 99.3049 94.1082C99.4402 94.1579 99.5639 94.2347 99.6686 94.3339C99.7732 94.433 99.8565 94.5525 99.9134 94.6849C99.9704 94.8173 99.9998 94.9599 99.9998 95.104C99.9998 95.2482 99.9704 95.3908 99.9134 95.5232C99.8565 95.6556 99.7732 95.7751 99.6686 95.8742C99.5639 95.9733 99.4402 96.0501 99.3049 96.0999C99.1697 96.1497 99.0257 96.1713 98.8817 96.1636Z" fill="#444057"/>
<path d="M7.14886 68.5215H1.0576C0.786437 68.5069 0.531179 68.389 0.344382 68.1919C0.157585 67.9947 0.0534668 67.7335 0.0534668 67.462C0.0534668 67.1904 0.157585 66.9292 0.344382 66.7321C0.531179 66.535 0.786437 66.417 1.0576 66.4024H7.14886C7.28865 66.4008 7.42737 66.4271 7.55684 66.4799C7.68632 66.5326 7.80395 66.6107 7.90281 66.7095C8.00167 66.8084 8.07976 66.926 8.13251 67.0555C8.18525 67.185 8.21157 67.3237 8.20993 67.4635C8.21374 67.6037 8.18888 67.7433 8.13686 67.8736C8.08485 68.0039 8.00678 68.1221 7.90744 68.2212C7.80809 68.3203 7.68957 68.398 7.55913 68.4496C7.42869 68.5013 7.28908 68.5257 7.14886 68.5215Z" fill="#444057"/>
<path d="M7.14903 74.909H1.05777C0.77717 74.909 0.50806 74.7975 0.309643 74.5991C0.111226 74.4007 -0.000244141 74.1316 -0.000244141 73.851C-0.000244141 73.5704 0.111226 73.3013 0.309643 73.1029C0.50806 72.9044 0.77717 72.793 1.05777 72.793H7.14903C7.42963 72.793 7.69874 72.9044 7.89716 73.1029C8.09558 73.3013 8.20705 73.5704 8.20705 73.851C8.20705 74.1316 8.09558 74.4007 7.89716 74.5991C7.69874 74.7975 7.42963 74.909 7.14903 74.909Z" fill="#444057"/>
<path d="M61.2095 13.0391H35.0893C34.8719 13.0399 34.6596 12.9732 34.4817 12.8484C34.3037 12.7235 34.1688 12.5466 34.0955 12.3419C34.0233 12.1328 34.0165 11.9067 34.0761 11.6937C34.1356 11.4806 34.2587 11.2908 34.4288 11.1494L47.4706 0.722086C47.6612 0.577975 47.8936 0.5 48.1326 0.5C48.3716 0.5 48.604 0.577975 48.7946 0.722086L61.7722 11.1188C61.912 11.2159 62.0269 11.3445 62.1077 11.4944C62.1884 11.6442 62.2327 11.811 62.237 11.9811C62.2451 12.1196 62.2243 12.2582 62.1759 12.3882C62.1276 12.5182 62.0527 12.6367 61.9561 12.7363C61.8595 12.8358 61.7432 12.9141 61.6147 12.9662C61.4861 13.0184 61.3482 13.0432 61.2095 13.0391ZM38.1349 10.92H58.1639L48.1341 2.9054L38.1349 10.92Z" fill="#7B2CBF"/>
<path d="M58.5942 28.1327H51.8425C51.7029 28.1343 51.5645 28.1081 51.4352 28.0556C51.3059 28.003 51.1884 27.9252 51.0896 27.8267C50.9908 27.7281 50.9126 27.6109 50.8597 27.4817C50.8068 27.3526 50.7801 27.2142 50.7814 27.0747V22.7937C50.7814 22.1263 50.5162 21.4861 50.0443 21.0142C49.5723 20.5422 48.9322 20.2771 48.2648 20.2771C47.5973 20.2771 46.9572 20.5422 46.4852 21.0142C46.0133 21.4861 45.7481 22.1263 45.7481 22.7937V27.0319C45.7502 27.1714 45.7242 27.3099 45.6718 27.4392C45.6194 27.5685 45.5415 27.686 45.4428 27.7846C45.3442 27.8833 45.2267 27.9611 45.0974 28.0136C44.9681 28.066 44.8296 28.092 44.6901 28.0899H37.7396C37.6 28.092 37.4613 28.066 37.3319 28.0136C37.2024 27.9612 37.0847 27.8834 36.9858 27.7848C36.8869 27.6862 36.8088 27.5687 36.756 27.4394C36.7032 27.3101 36.6769 27.1715 36.6785 27.0319V11.9781C36.6769 11.8384 36.7032 11.6998 36.756 11.5705C36.8088 11.4412 36.8869 11.3238 36.9858 11.2252C37.0847 11.1265 37.2024 11.0487 37.3319 10.9963C37.4613 10.9439 37.6 10.918 37.7396 10.92H58.5942C58.7337 10.918 58.8722 10.9439 59.0015 10.9964C59.1308 11.0488 59.2483 11.1267 59.3469 11.2253C59.4456 11.324 59.5234 11.4414 59.5759 11.5707C59.6283 11.7 59.6543 11.8385 59.6522 11.9781V27.0411C59.6551 27.1824 59.6299 27.3229 59.5781 27.4544C59.5264 27.5859 59.4491 27.7059 59.3507 27.8074C59.2523 27.9089 59.1349 27.9899 59.005 28.0457C58.8752 28.1016 58.7355 28.1311 58.5942 28.1327ZM52.9005 26.0136H57.5026V13.0391H38.764V25.98H43.5985V22.8029C43.5985 21.5693 44.0885 20.3863 44.9607 19.5141C45.8329 18.6419 47.0159 18.1519 48.2495 18.1519C49.483 18.1519 50.666 18.6419 51.5382 19.5141C52.4105 20.3863 52.9005 21.5693 52.9005 22.8029V26.0136Z" fill="#7B2CBF"/>
</svg>
