<svg width="24" height="24" viewBox="0 0 24 24" fill="none" xmlns="http://www.w3.org/2000/svg">
<path d="M18.5017 10.0891L12.5267 7.81429C12.1871 7.68317 11.8129 7.68317 11.4733 7.81429L5.49833 10.0891C5.27667 10.1748 5.27917 10.5262 5.50167 10.6059L11.4975 12.7624C11.8228 12.8816 12.1781 12.8816 12.5033 12.7624L18.4983 10.6059C18.7217 10.5253 18.7242 10.1739 18.5017 10.0891ZM21.5592 14.3498L12.5258 17.8991C12.1875 18.0336 11.8125 18.0336 11.4742 17.8991L2.44167 14.3506C2.17833 14.2478 2 13.9427 2 13.599V10.4165C2 10.0719 2.17833 9.76852 2.44167 9.66566L11.4742 6.10093C11.8158 5.96636 12.185 5.96636 12.5258 6.10093L21.5592 9.66652C21.8217 9.76937 22 10.0719 22 10.4165V13.599C22 13.9427 21.8217 14.2469 21.5592 14.3498Z" fill="black"/>
</svg>
